<?xml version="1.0" encoding="utf-8"?>
<!-- Generator: Adobe Illustrator 23.0.3, SVG Export Plug-In . SVG Version: 6.00 Build 0)  -->
<svg version="1.1" id="Calque_1" xmlns="http://www.w3.org/2000/svg" xmlns:xlink="http://www.w3.org/1999/xlink" x="0px" y="0px"
	 viewBox="0 0 140 154.8" style="enable-background:new 0 0 140 154.8;" xml:space="preserve">
<style type="text/css">
	.st0{fill:none;}
</style>
<rect y="0" class="st0" width="140" height="154.8"/>
<g>
	<line x1="19" y1="37.2" x2="121" y2="37.2"/>
	<g>
		<path d="M19,47.3c29.7,0,59.4,0,89.1,0c4.3,0,8.6,0,12.9,0c6.2,0,6.3-20.2,0-20.2c-29.7,0-59.4,0-89.1,0c-4.3,0-8.6,0-12.9,0
			C12.8,27,12.7,47.3,19,47.3L19,47.3z"/>
	</g>
</g>
<g>
	<line x1="19" y1="77.7" x2="121" y2="77.7"/>
	<g>
		<path d="M19,87.8c29.7,0,59.4,0,89.1,0c4.3,0,8.6,0,12.9,0c6.2,0,6.3-20.3,0-20.3c-29.7,0-59.4,0-89.1,0c-4.3,0-8.6,0-12.9,0
			C12.8,67.5,12.7,87.8,19,87.8L19,87.8z"/>
	</g>
</g>
<g>
	<line x1="19" y1="117.7" x2="121" y2="117.7"/>
	<g>
		<path d="M19,127.8c29.7,0,59.4,0,89.1,0c4.3,0,8.6,0,12.9,0c6.2,0,6.3-20.3,0-20.3c-29.7,0-59.4,0-89.1,0c-4.3,0-8.6,0-12.9,0
			C12.8,107.5,12.7,127.8,19,127.8L19,127.8z"/>
	</g>
</g>
</svg>
