<svg id="Calque_1" data-name="Calque 1" xmlns="http://www.w3.org/2000/svg" viewBox="0 0 526.88 141.13"><defs><style>.cls-1{fill:#c8cacb;}.cls-2{fill:#4d7cba;}.cls-3{fill:#079245;}.cls-4{fill:#04b7ab;}.cls-5{fill:#05b6ab;}.cls-6{fill:#07b7ab;}.cls-7{fill:#8dc342;}.cls-8{fill:#0cb8ad;}.cls-9{fill:#65c8de;}.cls-10{fill:#eaebec;}.cls-11{fill:#dedfe0;}.cls-12{fill:#61bfd4;}.cls-13{fill:#91a8d3;}.cls-14{fill:#7fb483;}.cls-15{fill:#72a136;}.cls-16{fill:#079c92;}.cls-17{fill:#86cbc6;}.cls-18{fill:#a3d7e5;}.cls-19{fill:#06aca1;}.cls-20{fill:#d2d4d5;}.cls-21{fill:#6b85ad;}.cls-22{fill:#7cbdb8;}.cls-23{fill:#adca83;}.cls-24{fill:#71aba8;}.cls-25{fill:#94ad72;}.cls-26{fill:#82b73b;}.cls-27{fill:#7dbbcc;}.cls-28{fill:#a0bb7a;}.cls-29{font-size:40px;fill:#099;font-family:TrebuchetMS, Trebuchet MS;}.cls-30{fill:#060;}.cls-31{letter-spacing:0.24em;}.cls-32{letter-spacing:0.6em;}.cls-33{fill:#06c;}.cls-34{letter-spacing:0.31em;}</style></defs><ellipse class="cls-1" cx="218.63" cy="72.31" rx="0.23" ry="3.69"/><path class="cls-2" d="M234.33,83.27V78.06a8.67,8.67,0,0,0,0-1.14c-.24-1.77.43-3.48.33-5.24.66-.9.12-2,.6-3s.15-2,.5-2.89.22-2,.86-2.9A32.19,32.19,0,0,1,239,55.07a61.8,61.8,0,0,1,4.19-8.67A52.83,52.83,0,0,1,248.13,39c.92-1.14,1.74-2.35,2.77-3.41a17.88,17.88,0,0,0,1.72-2.06,3.1,3.1,0,0,1,1.71-1,15,15,0,0,1,2.44-.42c.5-.08,1-.23,1.49-.31s.93.12,1.36-.31c.16-.16.62,0,.95,0h7.33c0,.48.4.27.65.32.64,0,1.29,0,1.94,0a15.81,15.81,0,0,1,1.64.32l.33.32c0,.87,0,1.73,0,2.6s-.21,1.74-.32,2.62c-.23,1.86.35,3.68.33,5.54a6.21,6.21,0,0,1-2.2,2.06,5.39,5.39,0,0,0-1.06.87,4.26,4.26,0,0,1-.31-1c-.05-.65,0-1.3,0-2s-.26-1.31-.3-2c-.17-2.39.21-4.78-.28-7.18a3,3,0,0,0-1-2,.65.65,0,0,0-1,.27,4.37,4.37,0,0,0,0,.81c0,1.57.06,3.14,0,4.7-.12,2.19.26,4.35.35,6.52a.69.69,0,0,0,.09.44c.48.52,0,1.18.25,1.68a3.45,3.45,0,0,1,.3,1.66c-.83,1-1.4,2.25-2.6,2.94-.63-.2-.1-.85-.35-1.05-.58-.45-.14-1.1-.47-1.62a3.64,3.64,0,0,1-.46-1.74A12.35,12.35,0,0,0,263,45a17.84,17.84,0,0,1-.29-1.81c-.05-1.53-.71-2.92-.72-4.44,0-.56-1.11-1.2-1.69-1.05a1,1,0,0,0-.55,1.31,4.24,4.24,0,0,1,.29,2.15c0,1.05.54,2.05.33,3.12.66.5.24,1.28.46,1.92.51,1.42.75,2.93,1.19,4.38A6.32,6.32,0,0,0,263,53c.16.6-.44.78-.64,1.17a11.39,11.39,0,0,1-1.64,2.41c-.11-.08-.27-.14-.32-.26a40.91,40.91,0,0,1-2.27-6.06,37.65,37.65,0,0,1-1.38-4.49,1.89,1.89,0,0,0-1.47-1.63c-.23,0-.5-.23-.66-.16a.78.78,0,0,0-.41.95c.08.34.23.66.31,1,.27,1.14.44,2.31.78,3.42a67.2,67.2,0,0,0,3.59,9.1,3.15,3.15,0,0,1,.2,1.06,13.26,13.26,0,0,1-.45,1.25c-.48,1-1,2-1.52,3a2.6,2.6,0,0,1-.64.59c0-.16.07-.39,0-.47a18.08,18.08,0,0,1-2.14-3.52c-1.24-2.06-2.28-4.25-3.38-6.39a1.81,1.81,0,0,0-1.9-1,.51.51,0,0,0-.37.34,1.45,1.45,0,0,0,0,.8c.43,1.12.85,2.25,1.37,3.33a85.5,85.5,0,0,0,5.17,8.75c.08.11.39.08.59.12a5.27,5.27,0,0,1-.46,2.25,5.41,5.41,0,0,0-.53,2.06c0,.07-.2.17-.31.25-.69-.85-1.41-1.68-2.07-2.56-1.07-1.45-2.09-2.93-3.15-4.38-.7-1-1.4-1.93-2.15-2.85a1.53,1.53,0,0,0-1.75-.14c-.24.17-.46.36-.22.78A44,44,0,0,0,248.55,67l2.6,3.33a17,17,0,0,0,2.73,2.82c-.1,1.28-.22,2.55-.32,3.82a.78.78,0,0,1-.65.74c-1.66-2.08-3.8-3.71-5.41-5.85a21.74,21.74,0,0,0-2.38-2.42c-.69-.68-.8-.64-1.79-.27-.53.2-.64.24-.31.82a32.43,32.43,0,0,0,3.38,4.26,46.36,46.36,0,0,0,3.41,3.46c.47.46,1,.87,1.47,1.31-.14.73-1,.66-1.36,1.15a4.78,4.78,0,0,1-1.25.8,1.44,1.44,0,0,1-1.17-.32,21.81,21.81,0,0,0-2.62-2.29c-.64-.46-1.21-1.15-2.2-1-.44.07-.74.26-.82.6a1.06,1.06,0,0,0,.27.84c1.36,1.33,2.55,2.87,4.26,3.8-1,1.09-2.1,2.15-3.1,3.27a41.49,41.49,0,0,0-5.07,6.84c-.68,1.18-1.31,2.39-1.93,3.6,0,.09-.09.18-.13.27a1.28,1.28,0,0,1-.19-.34c-.07-.35-.12-.69-.22-1A37.15,37.15,0,0,1,235,91.3c-.13-.77-.24-1.54-.32-2.31a20,20,0,0,0-.27-2.15A17,17,0,0,1,234.33,83.27Z" transform="translate(-15.54 -8.36)"/><path class="cls-3" d="M270.83,124.33a2.88,2.88,0,0,1,1,.34,12.32,12.32,0,0,1,2.62,2.26c0,.1-.05.25-.11.27-2.85.86-5.71,1.66-8.6,2.34a1.57,1.57,0,0,0-1,2c.2.61.85.28,1.26.25a8.23,8.23,0,0,0,2.1-.37c.59-.22,1.19,0,1.67-.28,1.75-.9,3.84-.82,5.53-1.91.73.05,1.36-.58,2.13-.34.91.05,1.42.89,2.25,1.15.38.11.67.53,1,.8a7.77,7.77,0,0,1-1.73.92,34.87,34.87,0,0,1-3.72,1.62c-1,.42-2,1-3,1.39a1.71,1.71,0,0,0-.64,1.72c.27.43.77.17,1.17.2.17,0,.35-.19.54-.24a43.42,43.42,0,0,0,4.68-1.67,16.69,16.69,0,0,0,5-2.63,14,14,0,0,1,1.86.41c.55.2.42.76.43,1.22v1c0,.21,0,.52-.13.59-1.68,1-3.38,2-5.08,3a2,2,0,0,0-1,1.92c.08.47.53.83.87.62,1.84-1.14,4-1.75,5.71-3.07.14-.11.39-.08.59-.12l.33.32c.36.64,0,1.62,1,2v1c0,.67-.5,1.24-.36,2a1.36,1.36,0,0,0,.38.82c.38.33.55,0,.8-.18s.32,0,.48,0c.75.76,1,1.82,1.62,2.66.52.68.95,1.44,1.41,2.17a1.93,1.93,0,0,1,.11.34.88.88,0,0,1-.31,0c-2.22-.53-4.45-1-6.66-1.55-2-.49-3.87-1.18-5.79-1.79a50.59,50.59,0,0,1-6.45-2.85,70.57,70.57,0,0,1-9.53-5.63,46.09,46.09,0,0,1-4-3.25,51,51,0,0,1-5.64-5.13c-1.55-1.84-3.27-3.53-4.68-5.51-.93-1.3-1.94-2.56-2.83-3.89-1-1.53-2-3.06-3-4.63a1.26,1.26,0,0,1-.14-1,14.59,14.59,0,0,0,.61-2.19c.25-.71.41-1.46.7-2.15.6-1.38,1.26-2.73,1.93-4.08.12-.25.42-.41.64-.62,0,.09.06.26.11.27,2.1.45,4,1.57,6.22,1.69.35.66,1.09.08,1.57.53s1.16-.08,1.77.39c.37.29,1.14,0,1.73,0a14.42,14.42,0,0,1,1.63,2.92c.12.22.22.45.33.67-.14.11-.27.28-.42.31a4.83,4.83,0,0,1-2.13-.31c-.71-.16-1.51.32-2.15-.3a19.71,19.71,0,0,1-3.25-.36,2.42,2.42,0,0,1-1.09-.1c-1-.58-1.67,0-2.33.57s-.45,1,.23,1.15c1,.27,2,.41,3,.68.81.23,1.73.1,2.43.39s1.39,0,2,.28a5.22,5.22,0,0,0,2,.3c1.14,0,2.27,0,3.4,0a20.93,20.93,0,0,1,2.29,3.25c-.06.55-.49.32-.75.32-2.81,0-5.62,0-8.43,0-1,0-1.4.64-1.89,1.23-.26.32.19,1,.65,1.06s1.19,0,1.78,0a12.89,12.89,0,0,0,1.81.3c2.12-.12,4.24.3,6.36-.27a11,11,0,0,1,2.75,0,19.82,19.82,0,0,1,1.92,2c.19.25.38.23.56.36a.85.85,0,0,1,.45.93c-.89.11-1.79-.18-2.68.21s-1.72.11-2.61.38a17.17,17.17,0,0,1-3.75.38,1.85,1.85,0,0,0-1.7,1.89c0,.15.22.38.34.38a12.88,12.88,0,0,0,3.88-.06c1.18-.36,2.38,0,3.53-.53a12.62,12.62,0,0,1,2.61-.39A16.66,16.66,0,0,0,270.83,124.33Z" transform="translate(-15.54 -8.36)"/><path class="cls-4" d="M295.25,53c3.53,0,7.05,0,10.58,0,2.46,0,4.89.48,7.36.36s5,0,7.49,0h7.49c.64,0,.87.31.59.87a8.27,8.27,0,0,1-1,1.68c-1.33,1.5-2.37,3.26-3.91,4.57a38.94,38.94,0,0,1-5,3.64,22,22,0,0,1-5.54,2.36,39.47,39.47,0,0,1-4.18.94,24.77,24.77,0,0,1-5.08.25,25.48,25.48,0,0,1-4.75-.72c-1-.23-1.92-.61-2.89-.88s-1.74-.78-2.63-1.12a14.8,14.8,0,0,1-3.38-2,25.58,25.58,0,0,1-3.74-3.12,22,22,0,0,1-4.06-5.47c0-.09-.07-.19-.12-.28-.18-.29-.77-.47-.46-.87.16-.2.69-.14,1.06-.14Z" transform="translate(-15.54 -8.36)"/><path class="cls-2" d="M316.78,28.53c-3.26,0-6.52.18-9.77,0-8.15-.55-16.3-.15-24.45-.29-.73,0-.73,0-.36-.79a14.35,14.35,0,0,1,2.64-4c.48-.48.79-1.12,1.29-1.57a32.25,32.25,0,0,1,5.94-4.48A38.51,38.51,0,0,1,297.59,15a14.4,14.4,0,0,1,2.09-.47c.55-.11,1.1-.24,1.65-.32s1.19.18,1.66-.33c1.69.17,3.42-.34,5.1.27a2.57,2.57,0,0,0,.79,0,33.32,33.32,0,0,1,6,1.54,22.45,22.45,0,0,1,5.94,3.35s.13,0,.16,0c1.28,1.29,2.85,2.23,4,3.73s2.14,2.8,3.15,4.26a6.88,6.88,0,0,1,.35.66c.4.78.4.79-.35.79Z" transform="translate(-15.54 -8.36)"/><path class="cls-5" d="M352.94,51.67l.32-2.61.33-.33a13.83,13.83,0,0,1,2.41,0c1,.18,1.46-.45,2-1,.37-.4.18-.62-.32-1a1.46,1.46,0,0,0-1-.28h-2.73c0-2.38,0-4.76,0-7.13a27.26,27.26,0,0,0-.36-4.24,10.28,10.28,0,0,1-.28-1.66h.33a5.71,5.71,0,0,1,1.69,1.8,19,19,0,0,0,1.92,2.31,53.85,53.85,0,0,1,4.59,6.39,55.16,55.16,0,0,0,3.13,5.23c.63,2.28,2,4.25,2.75,6.51.51,1.57,1.15,3.11,1.62,4.7a46.13,46.13,0,0,1,1.3,4.85,26.87,26.87,0,0,0,.88,4c.23.66-.06,1.46.37,2.13-.14,1.92.48,3.79.35,5.73a6.23,6.23,0,0,0,.25,3,1.61,1.61,0,0,1-.18,1.68c-.14.16-.09.5-.09.76,0,.82,0,1.63,0,2.45-.09,1.58-.21,3.16-.32,4.75-.74.83-.09,1.91-.57,2.86-.39.79-.18,1.86-.43,2.75-.68,2.38-1.21,4.8-2,7.13a6,6,0,0,1-.23.72,2,2,0,0,1-.88,1.09c-.94.49-1.63,1.41-2.8,1.55-.24,0-.33.66-.81.71a4.48,4.48,0,0,0-.71.22l-.66-.2A4.74,4.74,0,0,1,363,106a4.86,4.86,0,0,1,.42-.59,10.46,10.46,0,0,1,1.12,0c.47,0,.55-.2.5-.57a2.16,2.16,0,0,0-.16-.73c-.47-.89-1-1.75-1.46-2.62,1,0,1,0,1-.86a13.61,13.61,0,0,1,0-1.43,8.08,8.08,0,0,1,.31-1.29c.09-.33.22-.66.32-1,.65,0,1.29,0,1.93,0a.53.53,0,0,0,.34-.37c0-.34.1-.69-.23-1a19.27,19.27,0,0,1-1.59-1.9c-.11-.15-.08-.39-.12-.59,0-1-.05-2,0-3a3.42,3.42,0,0,1,.5-1.21c0-.06.3,0,.46,0h1.45a.75.75,0,0,0,.82-.76,1.18,1.18,0,0,0-.39-1.13c-.89-.85-1.69-1.78-2.53-2.67-.09-.45,0-.9-.17-1.37a4.12,4.12,0,0,1,.17-3.19c.23.07.58.08.69.24.45.62,1.09.47,1.62.37a1.75,1.75,0,0,0,.91-.82c.07-.12-.23-.56-.45-.74a12.86,12.86,0,0,0-2.08-1.63c-.81-.44-1.2-1.51-2.31-1.5-.11,0-.22-.31-.34-.48-.09-.86.18-1.72-.28-2.59-.15-.27-.41-1,.28-1.32a1.52,1.52,0,0,1,1.18.3c.54.5,1.29.35,2,.34s.82-.49,1-.87c.08-.13-.29-.67-.56-.84-.9-.56-1.85-1-2.78-1.54a6.16,6.16,0,0,0-2.34-1c-.28,0-.53-.39-.79-.6a3.31,3.31,0,0,0-.42-1.91,3.89,3.89,0,0,1-.56-2.32,17.55,17.55,0,0,1,2.9.83c.77.36,1.3,0,1.88-.27.22-.1.37-.5.42-.78s-.26-.64-.64-.76a45.21,45.21,0,0,0-6-2c-.4-.54-1-.25-1.49-.32l-.33-.33a2.16,2.16,0,0,0-.76-1.58,2.57,2.57,0,0,1-.86-2.33c.48,0,1.12-.19,1.42,0,.67.52,1.47,0,2,.34.69.47,1.35.15,2,.27a1.29,1.29,0,0,0,.48,0,1.69,1.69,0,0,0,.95-1.15.73.73,0,0,0-.62-.79c-1.87-.49-3.73-1-5.63-1.3-1-.18-2-.22-2.95-.35C352.78,52.26,353,51.9,352.94,51.67Z" transform="translate(-15.54 -8.36)"/><path class="cls-6" d="M308.3,86V79.19c0-1.2.06-1,1.26-1.5s2.42-.34,3.52-.92c.41-.21.71.08.76.62.07.72.05.69.78.39a8.71,8.71,0,0,1,3.48-1,6.24,6.24,0,0,1,3.24.86,2.09,2.09,0,0,0,2.55,0c1.48-1.07,3.21-1,4.85-.8a3.81,3.81,0,0,1,2.19,1.3,4.56,4.56,0,0,1,1.17,3.08c-.05,4,0,8,0,12.06,0,.75,0,.76-.79.76-1.46,0-2.93,0-4.4,0-.65,0-.68-.22-.68-.75,0-3.58,0-7.17,0-10.75,0-1-.64-1.4-1.6-1.09-.05,0-.07.08-.12.11-.4.25-.95-.15-1.33.34s-.19,1.14-.19,1.71q0,4.88,0,9.77c0,.47-.09.66-.61.65-1.41,0-2.82-.05-4.23,0-.58,0-.73-.11-.72-.71,0-3.2,0-6.41,0-9.61a8.67,8.67,0,0,0,0-1.14,1.05,1.05,0,0,0-1.13-.94h-.81c-1.1,0-1.58.48-1.63,1.62,0,.81,0,1.63,0,2.44,0,2.56,0,5.11,0,7.66,0,.43,0,.7-.58.68-1.47,0-2.93,0-4.4,0-.56,0-.58-.25-.58-.68C308.31,90.92,308.3,88.48,308.3,86Z" transform="translate(-15.54 -8.36)"/><path class="cls-7" d="M358.48,115.86a3.14,3.14,0,0,0,1.93-.45c.87-.51,1.78-.94,2.68-1.38a1.66,1.66,0,0,1,.55,0c0,.15.05.35,0,.44-1.23,1.51-1.93,3.37-3.17,4.88-.92,1.11-1.63,2.37-2.55,3.5-1.3,1.61-2.68,3.13-4,4.7a26.72,26.72,0,0,1-3.18,3.36c-2.17,1.8-4.23,3.73-6.54,5.36-1.64,1.16-3.27,2.32-5,3.37a67.53,67.53,0,0,1-6.4,3.4c-1.13.54-2.26,1.07-3.44,1.53s-2.23.88-3.36,1.3a22.37,22.37,0,0,0-3.54,1.29c-1.72,0-3.28.76-5,1.05-1.43.26-2.9.6-4.34.83a20.66,20.66,0,0,1-5.22.42,1.23,1.23,0,0,1-.83-.37c-.72-.74-1.47-1.45-2.17-2.2a1.76,1.76,0,0,1-.24-.71,4.2,4.2,0,0,0,1.71-1.85c0-.09.37-.07.57-.11a1.81,1.81,0,0,0,1.89.2,2.06,2.06,0,0,1,1.81-.13,4.14,4.14,0,0,0,1.51.26c.11.22.21.45.33.66.48.84.8.86,1.3.11s.56-1.39,1.3-1.75c.49,0,1.13.2,1.42,0,.61-.49,1.23-.21,1.84-.27s1.25-.57,2-.34c.1.08.25.14.31.25.62,1,1,1,1.65,0a3.3,3.3,0,0,1,.64-.59c.41,0,1,.1,1.21-.12.8-.86,1.95-.73,2.87-1.19a3.58,3.58,0,0,1,1.79-.31c.13.07.25.16.38.22.48.21.92.31,1-.44.57-.16-.09-1,.6-1.09.82.34,1.22-.46,1.81-.71,1.28-.53,2.49-1.25,3.73-1.89a1.49,1.49,0,0,0,1.3.31c.7-.17.12-.83.39-1.18.05-.06.17-.07.27-.11a2.62,2.62,0,0,0,.7-.23,28.52,28.52,0,0,1,2.71-2,9,9,0,0,0,1.8-1.37c.38,0,.82.13,1.1,0s.25-.61.37-.93c0,0,.1,0,.16,0a.72.72,0,0,0,.82-.34,4.49,4.49,0,0,1,1.66-1.72,17.25,17.25,0,0,0,2.4-2.36c.08-.08,0-.31,0-.47.84.44,1.23.28,1.29-.54,0-.36,0-.73,0-1.09.31,0,.84,0,.89-.13.32-.86,1.17-1.23,1.63-1.93.58-.88,1.5-1.6,1.39-2.83a1.11,1.11,0,0,1,.27.12.75.75,0,0,0,1.11,0,.82.82,0,0,0,.16-1c-.2-.67-.38-1.35-.56-2a2,2,0,0,1,.4-.32C357.24,116.53,358.16,116.76,358.48,115.86Z" transform="translate(-15.54 -8.36)"/><path class="cls-5" d="M306,85.47V93C306,94,306,94,304.87,94c-.87,0-1.74,0-2.6,0a3.53,3.53,0,0,1-1.56-.16c-.41-.2-1,.13-1.59.17s-1.09,0-1.63,0-1.08,0-1.63,0a7.41,7.41,0,0,1-4.23-1.57c-1.59-1-2.27-2.79-2.83-4.49a6.62,6.62,0,0,1-.32-2.45,9.64,9.64,0,0,1,1.25-4.83,6.84,6.84,0,0,1,5.37-3.29,3.8,3.8,0,0,0,1.23-.17,4.08,4.08,0,0,1,1.84,0c.91.12,1.81.33,2.71.5s1.83-.37,2.77-.4c0,0,.07-.1.11-.11l2.09-.46c.06.68.15,1.36.16,2C306,81,306,83.25,306,85.47Zm-5.21.2c0-2.08-.08-2.28-1-3.61a2.76,2.76,0,0,0-4.59.26,5.34,5.34,0,0,0-.64,2.5,6.29,6.29,0,0,0,.63,3.31A3.22,3.22,0,0,0,298,89.76a2.65,2.65,0,0,0,1.53-.55c.47-.35,1.13-.72.94-1.53C301.16,87.05,300.61,86.24,300.81,85.67Z" transform="translate(-15.54 -8.36)"/><path class="cls-8" d="M274.41,84.67c0,2.39,0,4.78,0,7.17,0,1-.06,1-1,1.22s-2.16.53-3.23.84c-.84.24-.86.25-.95-.59-.07-.64-.33-.82-.92-.46a9.07,9.07,0,0,1-2.67,1,5.09,5.09,0,0,1-4.84-1,3,3,0,0,1-1-2.17c0-4,0-8,0-12,0-.5.18-.84.67-.93a24.42,24.42,0,0,0,3.83-1c.77-.26,1.05,0,1.05.82V88.17c0,1.14.15,1.29,1.28,1.29.63,0,1.24.1,1.75-.53a2.12,2.12,0,0,0,.57-1.41c0-3,0-6.08,0-9.12,0-.43.05-.59.57-.7a14.18,14.18,0,0,0,3.84-.93c.13-.07.32,0,.48,0,.46,0,.67,0,.67.59C274.4,79.78,274.41,82.23,274.41,84.67Z" transform="translate(-15.54 -8.36)"/><path class="cls-2" d="M318.4,44.17a28.75,28.75,0,0,0,0-3.08c-.18-1.83.43-3.58.36-5.4s0-3.57,0-5.36c0-.5.24-.5.6-.5h8.77a7.22,7.22,0,0,1,1.14,0c.28,0,.7.18.79.39a13.82,13.82,0,0,1,1.43,4.61c0,.45-.15.56-.56.53s-.65,0-1,0-.44.15-.44.48c0,.87,0,1.74,0,2.6,0,.48.2.55.57.51h.17L332,39l.12,1.9c-.27,0-.71-.1-.78,0-.38.62-1.07.63-1.61.87-1,.43-2.12.62-3.1,1.1a10.61,10.61,0,0,1-3.33.88A18.94,18.94,0,0,1,318.4,44.17Z" transform="translate(-15.54 -8.36)"/><path class="cls-4" d="M276.69,81.34q0-4.64,0-9.27c0-1,.15-1,1.05-1.19a25.83,25.83,0,0,0,3.88-.85,6.19,6.19,0,0,1,.77-.12c.32,0,.51,0,.49.42s0,.76,0,1.14V87.26c0,.32,0,.65,0,1,.09,1.12.54,1.52,1.68,1.56.53,0,1.24-.09,1.52.19s.28,1.06.37,1.61c0,.21,0,.44,0,.64.17.87.14.79-.67,1.15a11.53,11.53,0,0,1-5.75.58,3.62,3.62,0,0,1-2.68-1.36,2.82,2.82,0,0,1-.71-1.83C276.71,87.64,276.69,84.49,276.69,81.34Z" transform="translate(-15.54 -8.36)"/><path class="cls-2" d="M293.31,41.24c0-.65,0-1.3,0-2-.12-3.11.58-6.19.32-9.31,0-.34.09-.48.45-.48,3,0,6-.11,8.95.05a5.72,5.72,0,0,1,5.11,3.25,5.83,5.83,0,0,1,.11,4.85A3.56,3.56,0,0,1,306.12,40c-.65.18-1,1-1.73.92a14.57,14.57,0,0,0-3.55-1.55c-1.52-.24-3-.86-4.58-.74-.23,0-.47-.16-.72-.19-.57-.06-1.15-.08-1.73-.12-.06.46-.14.92-.17,1.38s0,.86,0,1.29C293.61,41.08,293.42,41.16,293.31,41.24Z" transform="translate(-15.54 -8.36)"/><path class="cls-4" d="M278.32,42.87v-1c.11,0,.26,0,.32,0,.64-.6,1.62-.62,2.21-1.3.95.26,1.58-.6,2.46-.71.6-.07,1.19-.53,1.84-.58s1.25-.56,2-.34c.57-.7,1.46-.18,2.19-.58s1.57-.07,2.38-.07q0,6.34,0,12.7c0,.44,0,.69-.59.67a27.06,27.06,0,0,1-3.25,0,11.76,11.76,0,0,1-5-1.63,9.42,9.42,0,0,1-3.21-3.64c-.39-.81-1.08-1.52-1-2.52C278.52,43.53,279,43,278.32,42.87Z" transform="translate(-15.54 -8.36)"/><path class="cls-4" d="M293.31,41.24c.11-.08.3-.16.31-.26,0-.43,0-.86,0-1.29s.11-.92.17-1.38c.58,0,1.16.06,1.73.12.25,0,.49.21.72.19,1.59-.12,3.06.5,4.58.74a14.57,14.57,0,0,1,3.55,1.55c0,3.37,0,6.73,0,10.1,0,.43,0,.67-.59.67q-4.95,0-9.92,0c-.56,0-.59-.24-.59-.67C293.32,47.75,293.31,44.5,293.31,41.24Z" transform="translate(-15.54 -8.36)"/><path class="cls-9" d="M326.55,15.5c.84.33,1.66.69,2.52,1s1.53,1,2.52,1c1.82,1.21,3.9,1.9,5.74,3.07,1.49,1,3,1.84,4.53,2.79A2.61,2.61,0,0,1,343,24.56,23.31,23.31,0,0,1,344.13,28c.39,1.48.52,3,1,4.48a5.47,5.47,0,0,1,0,1.62c-.94,0-1.8.54-2.76.34-.06,0-.14.18-.23.19-1.2.14-2.3.73-3.53.78.33-1.15-.89-2-.67-3.09,0-.14-.2-.33-.31-.5a1.56,1.56,0,0,1,1.25-.68,1.1,1.1,0,0,0,.69-.53,3.94,3.94,0,0,0,.34-1.15c.06-.34,0-.65-.48-.57-.82.12-1.63.22-2.45.32-.21-.15-.56-.28-.6-.46A8.58,8.58,0,0,0,335.05,26a23.57,23.57,0,0,0-3.32-4.47,39.3,39.3,0,0,0-5.15-4.84C326,16.24,326.33,15.9,326.55,15.5Z" transform="translate(-15.54 -8.36)"/><path class="cls-2" d="M291.68,38.31c-.81,0-1.76-.27-2.38.07s-1.62-.12-2.19.58c-.71-.22-1.29.29-2,.34s-1.24.51-1.84.58c-.88.11-1.51,1-2.46.71-.59.68-1.57.7-2.21,1.3-.06,0-.21,0-.32,0a4.33,4.33,0,0,1-.07-2.67,15.32,15.32,0,0,1,.66-2.65c.41-.82.86-1.6,1.34-2.37,1.18-1.91,3.1-2.84,4.84-4a4.17,4.17,0,0,1,2.46-.69c1.3.05,2.59,0,3.89,0,.37,0,.6,0,.58.5a15.08,15.08,0,0,1-.06,3.23C291.5,34.94,291.81,36.63,291.68,38.31Z" transform="translate(-15.54 -8.36)"/><path class="cls-6" d="M342.51,86V79.78a3.12,3.12,0,0,1,2.58-3,5.56,5.56,0,0,1,2.31-.29,27.9,27.9,0,0,1,3.48.62,1,1,0,0,1,.77,1,13.34,13.34,0,0,1-.34,3.28c-.07.36-.16.18-.38.11a2.07,2.07,0,0,0-1.79.14,1.13,1.13,0,0,0-.77,1.17q0,5.2,0,10.41c0,.83-.29,1.13-1,.82-1.13-.48-2.4-.38-3.52-.93-.35-.17-1.08.05-1.19-.16a3.09,3.09,0,0,1-.12-1.41Z" transform="translate(-15.54 -8.36)"/><path class="cls-2" d="M306.34,42.22a.72.72,0,0,1,.35-.83,6.68,6.68,0,0,0,2.85-3.18,16.75,16.75,0,0,0,.7-2.79c.25-.8-.22-1.52-.43-2.25A6.11,6.11,0,0,0,308,30.34a2.31,2.31,0,0,1-.35-.66,2.73,2.73,0,0,1,.73-.16,12,12,0,0,1,3,.26,11.27,11.27,0,0,0,2.91.06l2.73.06c0,.9.09,1.81.1,2.72a13.68,13.68,0,0,1,0,3.07c-.57,2.83-.14,5.66-.29,8.48a22.58,22.58,0,0,1-3.46-.26c-1.3-.27-2.57-.57-3.84-1A10.14,10.14,0,0,0,306.34,42.22Z" transform="translate(-15.54 -8.36)"/><path class="cls-9" d="M294.94,12.57a21.19,21.19,0,0,0-6,2.86A30.32,30.32,0,0,0,282.5,21a24.21,24.21,0,0,0-2.86,4c-.19.33-.32.34-.58.21l-3.24-1.6a26.18,26.18,0,0,0-6.23-2.23,3.76,3.76,0,0,1-.84-.33.41.41,0,0,1,0-.3c.44-.25.89-.47,1.33-.7,1.43-.75,2.81-1.6,4.28-2.23a73.46,73.46,0,0,1,7.72-3l5.2-1.58c.58-.18,1.28.15,1.79-.38,1.88-.05,3.67-.92,5.58-.65Z" transform="translate(-15.54 -8.36)"/><path class="cls-5" d="M318.4,44.17a18.94,18.94,0,0,0,4.87-.39,10.61,10.61,0,0,0,3.33-.88c1-.48,2.1-.67,3.1-1.1.54-.24,1.23-.25,1.61-.87.07-.12.51,0,.78,0,0,.38,0,.76,0,1.14,0,.8,0,.8-.74.82-1.86,0-1.86,0-1.86,1.84v.16c0,.48-.16,1.12.08,1.41s.89.18,1.36.16.54.18.52.57a16.25,16.25,0,0,1-1,3.82c-.56.21-.1.92-.46,1.09a3.32,3.32,0,0,1-1.27.07h-9.11c-1.21,0-1.22,0-1.22-1.15Z" transform="translate(-15.54 -8.36)"/><path class="cls-6" d="M339.91,85.23c0,2.71,0,5.43,0,8.14,0,.45,0,.68-.59.67-1.46,0-2.93,0-4.4,0-.87,0-.88,0-.88-.84V78.36c0-.86.23-1.09,1.13-1.28a27.77,27.77,0,0,0,3-.65c.29-.1.59-.17.87-.26.67-.21.88-.08.88.59C339.91,79.58,339.91,82.41,339.91,85.23Z" transform="translate(-15.54 -8.36)"/><path class="cls-6" d="M306.34,42.22a10.14,10.14,0,0,1,3.13.73c1.27.39,2.54.69,3.84,1a22.58,22.58,0,0,0,3.46.26c0,2.39,0,4.77,0,7.15,0,.64-.22.69-.74.68-3,0-6,0-8.93,0-.91,0-1.09-.21-1.1-1.14,0-1.73,0-3.46,0-5.19,0-.56.25-1.1.3-1.66A17.61,17.61,0,0,0,306.34,42.22Z" transform="translate(-15.54 -8.36)"/><path class="cls-1" d="M301.46,70.89c1.89,0,3.79,0,5.69,0a22.66,22.66,0,0,0,5.57-.69,19.47,19.47,0,0,0,3-1c.93-.37,1.85-.78,2.75-1.23a33.84,33.84,0,0,0,6-3.9,28.73,28.73,0,0,0,2.92-2.69,29.38,29.38,0,0,0,3.69-5,26.79,26.79,0,0,0,1.49-2.8,28.25,28.25,0,0,0,2.12-6.27A12.4,12.4,0,0,0,335,45.5c0-.67.24-1.32.29-2s0-1.3,0-2c.56,0,1.12-.07,1.31.65,0,.7,0,1.41,0,2.11s-.22,1.31-.31,2a11.49,11.49,0,0,1-.41,2.91c-.24.59,0,1.18-.29,1.67-.91,1.73-1.21,3.7-2.2,5.42a27.65,27.65,0,0,1-3.49,5.2c-.12.13-.09.39-.13.59v.33c-.19,0-.45,0-.58.12-.55.5-1.08,1-1.58,1.58-.11.12-.08.38-.12.58,0,.44-.34.26-.56.34a1.35,1.35,0,0,0-.41.31,1.6,1.6,0,0,0-.6.13,8.53,8.53,0,0,0-1.36,1,9.8,9.8,0,0,1-2.54,1.76,12.47,12.47,0,0,1-2.55,1.29c-1,.25-1.8,1-2.85,1-.39.66-1.16.15-1.72.6s-1.33.15-1.93.4a7.08,7.08,0,0,1-2.49.31c-.42,0-.21.41-.26.64h-.65c-.08-.11-.17-.31-.25-.31-1.24,0-2.49,0-3.73,0-.08,0-.17.2-.25.31s-.4-.06-.6-.11-.47-.14-.71-.22c-.08-.1-.19-.32-.24-.31-.76.18-1.41-.26-2.12-.35C301.31,71.49,301.5,71.12,301.46,70.89Z" transform="translate(-15.54 -8.36)"/><path class="cls-10" d="M338.93,43.85c0,.59,0,1.19,0,1.79a8.14,8.14,0,0,1-.37,3.11c-.3.93-.34,1.91-.63,2.83s-.71,1.77-.95,2.69a17.4,17.4,0,0,1-1.86,3.95,18.39,18.39,0,0,1-2.86,4.19c-.39.41-.69.91-1,1.35a10.16,10.16,0,0,1-1.11,1.33c-1.32,1.19-2.64,2.39-4,3.47-1.17.89-2.5,1.58-3.69,2.45-.68.49-1.64.37-2.14,1.13-.82,0-1.38.61-2.11.81l-2.05.55c-.29.09-.56.23-.84.32a4.92,4.92,0,0,1-1.5.36,22.9,22.9,0,0,0-2.46.29c-.78.09-1.6-.21-2.31.33-1.14-.18-2.35.36-3.45-.31a1.15,1.15,0,0,0-.64,0c-1.45.24-2.83-.45-4.26-.34a.75.75,0,0,1-.44-.12,8.74,8.74,0,0,0-2.74-.85,6.69,6.69,0,0,1-1.13-.42,11.43,11.43,0,0,0-1.53-.63c-.44-.14-.78-.59-1.36-.65-.32,0-.6-.36-.9-.55-.83-.5-1.68-1-2.47-1.5s-1.84-1.35-2.72-2.07c-.5-.41-.89-1.18-1.41-1.28-.77-.14-.6-1-1.31-1.17-.38-.09-.63-.77-.93-1.19s-.7-.39-.95-.87a26.2,26.2,0,0,0-2-2.76,1.55,1.55,0,0,1-.13-.59c.61-.15.91.33,1.16.69a14.52,14.52,0,0,0,3.62,3.63A26.06,26.06,0,0,1,287.77,66a.75.75,0,0,0,.35.84c1.11.64,2,1.57,3.16,2.2a23.75,23.75,0,0,0,2.65,1.44c.85.33,1.66.76,2.47,1.13a19,19,0,0,0,2.59.82,11.29,11.29,0,0,0,2.79.77c1,0,2.05.35,3.12.31,1.57-.05,3.15,0,4.72,0a11.78,11.78,0,0,0,3.29-.31c1.47-.42,3-.63,4.43-1.11a47.34,47.34,0,0,0,5.47-2.52,7.38,7.38,0,0,0,.88-.62,27.35,27.35,0,0,0,4-2.94,41.23,41.23,0,0,0,3.71-4c.76-1,1.86-1.71,2.05-3.07,1-1,1.38-2.47,2.06-3.71a10.23,10.23,0,0,0,1.11-2.78,25.75,25.75,0,0,0,.81-3.28c.06-.88.51-1.75.55-2.69s.2-2,.31-3C338.52,43.57,338.9,43.36,338.93,43.85Z" transform="translate(-15.54 -8.36)"/><path class="cls-11" d="M338.28,43.52c-.11,1-.27,2-.31,3s-.49,1.81-.55,2.69a25.75,25.75,0,0,1-.81,3.28,10.23,10.23,0,0,1-1.11,2.78c-.68,1.24-1,2.66-2.06,3.71-.19,1.36-1.29,2.09-2.05,3.07a41.23,41.23,0,0,1-3.71,4,27.35,27.35,0,0,1-4,2.94,7.38,7.38,0,0,1-.88.62,47.34,47.34,0,0,1-5.47,2.52c-1.44.48-3,.69-4.43,1.11a11.78,11.78,0,0,1-3.29.31c-1.57,0-3.15,0-4.72,0-1.07,0-2.08-.26-3.12-.31a11.29,11.29,0,0,1-2.79-.77,19,19,0,0,1-2.59-.82c-.81-.37-1.62-.8-2.47-1.13A23.75,23.75,0,0,1,291.28,69c-1.14-.63-2-1.56-3.16-2.2a.75.75,0,0,1-.35-.84,5.36,5.36,0,0,1,.71.23l5.16,2.71c0,.23-.14.51.24.66,1.35.52,2.65,1.15,4,1.59.9.3,1.74.93,2.78.71.35.5.88.21,1.33.3s1,.24,1.48.31c.22,0,.57.13.57-.32.24.08.47.16.71.22s.4.08.6.11.17.31.25.31c1.24,0,2.49,0,3.73,0,.08,0,.17-.2.25-.31h.65a11.88,11.88,0,0,0,4.08-.42,36.57,36.57,0,0,0,3.72-1.21,25.91,25.91,0,0,0,3.54-1.66,25.1,25.1,0,0,0,3.9-2.38c.46-.33,1.17-.67,1.06-1.5A1.35,1.35,0,0,1,327,65c.22-.08.56.1.56-.34.2,0,.46,0,.59-.12A21.41,21.41,0,0,0,329.69,63c.11-.12.08-.38.11-.58v-.33c.61.15.95-.32,1.16-.69.78-1.42,2.15-2.48,2.53-4.13.83-.66.85-1.7,1.25-2.57a9.67,9.67,0,0,0,1.06-2.64,19.5,19.5,0,0,1,.76-2.43c.25-.9.07-1.83.36-2.77a18.17,18.17,0,0,0,.39-3.41c0-.41.41-.21.64-.25h.33Z" transform="translate(-15.54 -8.36)"/><path class="cls-12" d="M326.55,15.5c-.22.4-.58.74,0,1.19a39.3,39.3,0,0,1,5.15,4.84A23.57,23.57,0,0,1,335.05,26a8.58,8.58,0,0,1,1.32,2.72c0,.18.39.31.6.46l-1,.66-2.29.65a2.76,2.76,0,0,1-.48-.67,9.5,9.5,0,0,0-1.13-2.44c-.08-.11,0-.31,0-.48.1-.44.21-.88.32-1.32a.8.8,0,0,0-.35-.83c-.38-.33-.55,0-.8.19s-.32,0-.48,0a32.3,32.3,0,0,0-4.33-5.49,31.46,31.46,0,0,0-7.72-5.59l.32-.33a5.71,5.71,0,0,1,2.58.46C323.27,14.51,324.91,15,326.55,15.5Z" transform="translate(-15.54 -8.36)"/><path class="cls-1" d="M345.77,118.79c0-.2,0-.48.13-.59a18.57,18.57,0,0,0,2.81-3.57,12.74,12.74,0,0,0,2.12-3.66.71.71,0,0,1,.15,0c.13.59.61.38.86.25a6.13,6.13,0,0,1,2.29-.64c.05,0,.08-.17.11-.26.71.23,1.29-.33,2-.33a1.47,1.47,0,0,1-.77,1.33c-.24.11-.38.45-.53.71-.88,1.42-1.41,3-2.56,4.33a1.61,1.61,0,0,0-.38,1.45c-.13.11-.26.32-.38.31a2,2,0,0,0-1.25.34,8.36,8.36,0,0,0-1.12,0,9.5,9.5,0,0,0-1.16.32Z" transform="translate(-15.54 -8.36)"/><path class="cls-13" d="M259.1,59.49a3.15,3.15,0,0,0-.2-1.06,67.2,67.2,0,0,1-3.59-9.1c-.34-1.11-.51-2.28-.78-3.42-.08-.35-.23-.67-.31-1a.78.78,0,0,1,.41-.95c.16-.07.43.12.66.16a1.89,1.89,0,0,1,1.47,1.63,37.65,37.65,0,0,0,1.38,4.49,40.91,40.91,0,0,0,2.27,6.06c0,.12.21.18.32.26a5,5,0,0,1-.82,1.57C259.43,58.52,259.65,59.22,259.1,59.49Z" transform="translate(-15.54 -8.36)"/><path class="cls-13" d="M263,53a6.32,6.32,0,0,1-1-2.43c-.44-1.45-.68-3-1.19-4.38-.22-.64.2-1.42-.46-1.92.21-1.07-.3-2.07-.33-3.12a4.24,4.24,0,0,0-.29-2.15,1,1,0,0,1,.55-1.31c.58-.15,1.68.49,1.69,1.05,0,1.52.67,2.91.72,4.44A17.84,17.84,0,0,0,263,45a12.35,12.35,0,0,1,.33,1.65,3.64,3.64,0,0,0,.46,1.74c.33.52-.11,1.17.47,1.62.25.2-.28.85.35,1.05C264.08,51.65,263.9,52.61,263,53Z" transform="translate(-15.54 -8.36)"/><path class="cls-13" d="M267.24,48.08a3.45,3.45,0,0,0-.3-1.66c-.24-.5.23-1.16-.25-1.68a.69.69,0,0,1-.09-.44c-.09-2.17-.47-4.33-.35-6.52.08-1.56,0-3.13,0-4.7a4.37,4.37,0,0,1,0-.81.65.65,0,0,1,1-.27,3,3,0,0,1,1,2c.49,2.4.11,4.79.28,7.18,0,.66.25,1.31.3,2s0,1.3,0,2a4.26,4.26,0,0,0,.31,1Z" transform="translate(-15.54 -8.36)"/><path class="cls-13" d="M253.88,73.17a17,17,0,0,1-2.73-2.82L248.55,67a44,44,0,0,1-3.35-5.28c-.24-.42,0-.61.22-.78a1.53,1.53,0,0,1,1.75.14c.75.92,1.45,1.88,2.15,2.85,1.06,1.45,2.08,2.93,3.15,4.38.66.88,1.38,1.71,2.07,2.56A8.39,8.39,0,0,1,253.88,73.17Z" transform="translate(-15.54 -8.36)"/><path class="cls-13" d="M255.84,66.33c-.2,0-.51,0-.59-.12a85.5,85.5,0,0,1-5.17-8.75c-.52-1.08-.94-2.21-1.37-3.33a1.45,1.45,0,0,1,0-.8.51.51,0,0,1,.37-.34,1.81,1.81,0,0,1,1.9,1c1.1,2.14,2.14,4.33,3.38,6.39a18.08,18.08,0,0,0,2.14,3.52c.08.08,0,.31,0,.47C256.48,65.1,256.62,65.87,255.84,66.33Z" transform="translate(-15.54 -8.36)"/><path class="cls-3" d="M255.51,100.87a33.87,33.87,0,0,1,1.63,4.23,2.38,2.38,0,0,0-.67-.31,43.42,43.42,0,0,1-6.07-1.4c-.92-.21-1.81-.59-2.71-.89-.23-.67.45-.9.69-1.3.43-.72.71-1.6,1.59-2a9.7,9.7,0,0,1,2.24.76A10.53,10.53,0,0,0,255.51,100.87Z" transform="translate(-15.54 -8.36)"/><path class="cls-14" d="M266.27,119.44a11,11,0,0,0-2.75,0c-2.12.57-4.24.15-6.36.27a12.89,12.89,0,0,1-1.81-.3c-.59,0-1.19,0-1.78,0s-.91-.74-.65-1.06c.49-.59.9-1.26,1.89-1.23,2.81.06,5.62,0,8.43,0,.26,0,.69.23.75-.32.73.14.64,1,1.14,1.35A8.11,8.11,0,0,1,266.27,119.44Z" transform="translate(-15.54 -8.36)"/><path class="cls-15" d="M338.93,125.31c0-.16-.06-.43,0-.46,1.18-.62,1.89-1.75,2.88-2.58a2.07,2.07,0,0,1,.69-.22c0,1.27,0,2.55,0,3.83,0,.13.2.27.31.4v3.59c-.16,0-.41-.07-.48,0a19.41,19.41,0,0,1-2.58,2,1.7,1.7,0,0,1-1.18.32v-2A2.39,2.39,0,0,0,339,129C338.89,127.79,338.93,126.55,338.93,125.31Z" transform="translate(-15.54 -8.36)"/><path class="cls-10" d="M287.45,140c-1-.34-.62-1.32-1-2,.16,0,.36.07.48,0a1.5,1.5,0,0,1,2.12.16.69.69,0,0,0,.41.17,12.94,12.94,0,0,1,3.57,1.19,7,7,0,0,0,2.45.73c1.2.07,2.22.93,3.46.71.07,0,.19.1.24.18.4.64,1,.42,1.61.46l.65.32a2.42,2.42,0,0,0,.21.69c.45.66.94,1.28,1.42,1.92a1.43,1.43,0,0,1-1.29-.44c-.74-.87-.77-.83-1.71-.87a2.77,2.77,0,0,1-1-.22,3.87,3.87,0,0,0-2.1-.43c-.15,0-.38.07-.47,0-.83-.75-1.84-.59-2.82-.67-.36,0-.66-.5-1-.6a15.51,15.51,0,0,1-3.91-1.53C288.19,139.43,287.86,139.83,287.45,140Z" transform="translate(-15.54 -8.36)"/><path class="cls-13" d="M251.28,79c-.49-.44-1-.85-1.47-1.31a46.36,46.36,0,0,1-3.41-3.46A32.43,32.43,0,0,1,243,70c-.33-.58-.22-.62.31-.82,1-.37,1.1-.41,1.79.27a21.74,21.74,0,0,1,2.38,2.42c1.61,2.14,3.75,3.77,5.41,5.85,0,.11,0,.26,0,.3C252.43,78.48,252,79,251.28,79Z" transform="translate(-15.54 -8.36)"/><path class="cls-14" d="M261.7,113.58c-1.13,0-2.26,0-3.4,0a5.22,5.22,0,0,1-2-.3c-.6-.25-1.28,0-2-.28s-1.62-.16-2.43-.39c-1-.27-2-.41-3-.68-.68-.18-.77-.69-.23-1.15s1.33-1.15,2.33-.57a2.42,2.42,0,0,0,1.09.1,19.71,19.71,0,0,0,3.25.36c.64.62,1.44.14,2.15.3a4.83,4.83,0,0,0,2.13.31c.15,0,.28-.2.42-.31A15.58,15.58,0,0,1,261.7,113.58Z" transform="translate(-15.54 -8.36)"/><path class="cls-15" d="M345.77,118.79h2.28c.13,1.16.25,2.32.39,3.47,0,0,.17.08.26.11v2.28c-.08.65-.93.51-1.07.95-.32,1-1.42,1.11-1.94,1.87-.07.12-.37.08-.57.12,0-.52,0-1,0-1.56,0-.14-.2-.27-.31-.4a7.51,7.51,0,0,1,0-.95,20.56,20.56,0,0,0-.4-4.15s-.17-.08-.26-.11A2,2,0,0,1,345.77,118.79Z" transform="translate(-15.54 -8.36)"/><path class="cls-15" d="M332.74,129.54c.07-.13.11-.31.22-.37a18.8,18.8,0,0,0,3.22-2.22c.09-.08.31,0,.47,0,0,.65,0,1.3,0,1.95s-.21,1.31-.32,2v3.26c-.16,0-.4-.07-.48,0-.87.93-2.13,1.17-3.16,1.82a2.44,2.44,0,0,1-.92.13c-.23-.71.32-1.29.33-2a2.29,2.29,0,0,1,0-.64A22.59,22.59,0,0,0,332.74,129.54Z" transform="translate(-15.54 -8.36)"/><path class="cls-8" d="M336.76,69.93c1.48-.11,2.46.3,2.93,1.56a3.16,3.16,0,0,1-.29,3.26,3.2,3.2,0,0,1-3.66.74,3.66,3.66,0,0,1-1.66-2.43,2.15,2.15,0,0,1,.83-2.23C335.49,70.29,335.94,69.45,336.76,69.93Z" transform="translate(-15.54 -8.36)"/><path class="cls-14" d="M277.35,128.89c-.77-.24-1.4.39-2.13.34-1.69,1.09-3.78,1-5.53,1.91-.48.25-1.08.06-1.67.28a8.23,8.23,0,0,1-2.1.37c-.41,0-1.06.36-1.26-.25a1.57,1.57,0,0,1,1-2c2.89-.68,5.75-1.48,8.6-2.34.06,0,.07-.17.11-.27A12.89,12.89,0,0,1,277.35,128.89Z" transform="translate(-15.54 -8.36)"/><path class="cls-14" d="M270.83,124.33a16.66,16.66,0,0,1-2,.63,12.62,12.62,0,0,0-2.61.39c-1.15.54-2.35.17-3.53.53a12.88,12.88,0,0,1-3.88.06c-.12,0-.32-.23-.34-.38a1.85,1.85,0,0,1,1.7-1.89,17.17,17.17,0,0,0,3.75-.38c.89-.27,1.8,0,2.61-.38s1.79-.1,2.68-.21a3.25,3.25,0,0,1,1.51,1A1.88,1.88,0,0,1,270.83,124.33Z" transform="translate(-15.54 -8.36)"/><path class="cls-15" d="M326.22,132.8a2.81,2.81,0,0,1,.67-.49,9.33,9.33,0,0,0,2.44-1.13c.1-.08.31,0,.47,0s.31.26.32.4c.09,1.12-.48,2.11-.64,3.18l-.33,2.29-.32,1a4.74,4.74,0,0,0-.93.13c-.71.23-1.39.58-2.11.76-.37.09-.93.45-1.2-.24l.33-1.95a6.91,6.91,0,0,0,1-3.58Z" transform="translate(-15.54 -8.36)"/><path class="cls-16" d="M355.87,100.22c-.09-1.15.5-2.16.65-3.26.38.09.76-.2,1.09.48s.64,1.52,1.52,1.8a7.6,7.6,0,0,0,1.63,2.61v.65c.15.26-.62.4-.1.74a.41.41,0,0,1,.06.41,3.54,3.54,0,0,0-.7,2c-.07.29-.14,1.06-.89.79a2.72,2.72,0,0,1-.32-.25c-.12-.13-.22-.27-.33-.4a10.56,10.56,0,0,0-1.37-2.51C356.56,102.3,355.63,101.5,355.87,100.22Z" transform="translate(-15.54 -8.36)"/><path class="cls-14" d="M282.88,132.15a16.69,16.69,0,0,1-5,2.63,43.42,43.42,0,0,1-4.68,1.67c-.19.05-.37.26-.54.24-.4,0-.9.23-1.17-.2a1.71,1.71,0,0,1,.64-1.72c1-.43,2-1,3-1.39a34.87,34.87,0,0,0,3.72-1.62,7.77,7.77,0,0,0,1.73-.92C281.44,131.14,282.38,131.26,282.88,132.15Z" transform="translate(-15.54 -8.36)"/><path class="cls-14" d="M247.69,102.5c.9.3,1.79.68,2.71.89a43.42,43.42,0,0,0,6.07,1.4,2.38,2.38,0,0,1,.67.31c.26.79,1,1.38,1,2.28-.59,0-1.36.24-1.73,0-.61-.47-1.32,0-1.77-.39s-1.22.13-1.57-.53c-2.19-.12-4.12-1.24-6.22-1.69-.05,0-.08-.18-.11-.27A3.12,3.12,0,0,1,247.69,102.5Z" transform="translate(-15.54 -8.36)"/><path class="cls-17" d="M352.94,51.67c.05.23-.16.59.25.64,1,.13,2,.17,2.95.35,1.9.33,3.76.81,5.63,1.3a.73.73,0,0,1,.62.79,1.69,1.69,0,0,1-.95,1.15,1.29,1.29,0,0,1-.48,0c-.66-.12-1.32.2-2-.27-.51-.35-1.31.18-2-.34-.3-.23-.94,0-1.42,0-1.18-.32-2.4-.43-3.59-.65V54a2.79,2.79,0,0,0,.65-2.28Z" transform="translate(-15.54 -8.36)"/><path class="cls-16" d="M357.5,93.37c-.24-1.33.44-2.58.33-3.91a1,1,0,0,1,.83.33c.89.89,1.83,1.74,2.75,2.61,0,.19,0,.53.11.56.67.25.79.94,1.19,1.39a4.11,4.11,0,0,0-.67,2.17c0,.26-.19.56-.3.84s.3.79-.33.9l-1-.65c0-.16.07-.38,0-.47a29.57,29.57,0,0,0-1.92-2.25A5.27,5.27,0,0,1,357.5,93.37Z" transform="translate(-15.54 -8.36)"/><path class="cls-13" d="M272.46,43.2c0-1.86-.56-3.68-.33-5.54.11-.88.26-1.75.32-2.62s0-1.73,0-2.6a17.09,17.09,0,0,1,2.93.5.71.71,0,0,1,0,.15c-.23,0-.68-.13-.63.25.19,1.59-.36,3.12-.35,4.69,0,1.29,0,2.58,0,3.86C273.73,42.28,273.26,43,272.46,43.2Z" transform="translate(-15.54 -8.36)"/><path class="cls-16" d="M358.15,86.53V82c.16,0,.38-.07.48,0,.7.56,1.37,1.16,2.07,1.7a2.06,2.06,0,0,0,.71.24c.54.66,1.09,1.31,1.63,2,0,.7,0,1.41,0,2.1s-.21,1.43-.32,2.14h-.32c-1-1.5-2.5-2.4-3.76-3.58C358.54,86.46,358.31,86.53,358.15,86.53Z" transform="translate(-15.54 -8.36)"/><path class="cls-9" d="M345.44,36.35l.33,3.59-.33.32c-.21,0-.49-.08-.63,0-.67.47-1.47.12-2.12.35a6.51,6.51,0,0,1-2.13.28c-.08-.23-.15-.46-.22-.7-.22-.75-.9-1.35-.76-2.23.43-.83,1.32-.64,2-.8A14.7,14.7,0,0,1,345.44,36.35Z" transform="translate(-15.54 -8.36)"/><path class="cls-15" d="M318.73,135.41A17.89,17.89,0,0,1,323,134.1c.6.11.39.62.27.83a4.57,4.57,0,0,0-.59,1.78,24.08,24.08,0,0,0-1,2.61h-.33c-.87.17-1.76.3-2.62.52-.48.12-.92.33-1.29-.2a6.33,6.33,0,0,1,.88-2.34A2.76,2.76,0,0,0,318.73,135.41Z" transform="translate(-15.54 -8.36)"/><path class="cls-18" d="M345.44,36.35a14.7,14.7,0,0,0-3.87.83c-.67.16-1.56,0-2,.8H338c-.48-.59-.3-1.29-.33-1.95l1-.65c1.23-.05,2.33-.64,3.53-.78.09,0,.17-.2.23-.19,1,.2,1.82-.37,2.76-.34Z" transform="translate(-15.54 -8.36)"/><path class="cls-10" d="M352.61,51.67A2.79,2.79,0,0,1,352,54c-.35-.05-.73.13-1-.22-1.62-1.81-3.62-3.26-5-5.31a.77.77,0,0,0-.82-.34V46.45c.63-.15.2-.65.32-1,1.94,2,3.88,4,5.8,6C351.66,51.88,352.16,51.57,352.61,51.67Z" transform="translate(-15.54 -8.36)"/><path class="cls-16" d="M356.2,110c-.67,0-1.25.56-2,.33a9.34,9.34,0,0,1-1.1-1.88,2.25,2.25,0,0,1-.2-1.06,18.22,18.22,0,0,1,1.3-3.25c.49-.09.75.18,1,.56a11.39,11.39,0,0,0,1.3,2,3.63,3.63,0,0,0,.11.59c.29.67.88,1.22.87,2v.33A1.72,1.72,0,0,0,356.2,110Z" transform="translate(-15.54 -8.36)"/><path class="cls-16" d="M357.83,78.71c-.11-.55-.26-1.09-.32-1.64s0-1.08,0-1.62c0-.2,0-.53.12-.57s.61-.13.74,0a4.62,4.62,0,0,0,1.42.9c.56.32,1.14.63,1.68,1a3.34,3.34,0,0,1,.6.64c-.11.13-.28.25-.31.4-.25,1.2.34,2.33.31,3.51-.16,0-.36.06-.47,0C360.32,80.45,359.08,79.58,357.83,78.71Z" transform="translate(-15.54 -8.36)"/><path class="cls-10" d="M358.48,115.86c-.32.9-1.24.67-1.88,1a2,2,0,0,0-.4.32h-.65a2.42,2.42,0,0,1,.34-1.78c1.24-1.49,1.68-3.41,2.71-5a2.11,2.11,0,0,0,.2-1,1.61,1.61,0,0,1,.25-.32c.34-.24.88-.15,1.06-.66l1-.32a2.66,2.66,0,0,1-.32,1.65,5.46,5.46,0,0,0-.94,2.52c0,.57-.87.2-.71.84a1.1,1.1,0,0,1-.27,1A2.45,2.45,0,0,0,358.48,115.86Z" transform="translate(-15.54 -8.36)"/><path class="cls-12" d="M345.44,45.48c-.12.32.31.82-.32,1a7.09,7.09,0,0,0-1.13,0,7.82,7.82,0,0,0-1.15.31c-.16,0-.41.07-.46,0-.87-1.16-2.36-1.65-3.13-2.92.14-.11.27-.3.41-.31a5.91,5.91,0,0,0,1.27,0,11.56,11.56,0,0,1,4.51-.63Z" transform="translate(-15.54 -8.36)"/><path class="cls-19" d="M352,54.6c1.19.22,2.41.33,3.59.65a2.57,2.57,0,0,0,.86,2.33,2.16,2.16,0,0,1,.76,1.58c-.26,0-.7.11-.77,0-.4-.62-1.08-.15-1.6-.48s-1.27,0-1.79-.3-1.15-.06-1.7-.18-.2-.65-.33-1A8.77,8.77,0,0,0,352,54.6Z" transform="translate(-15.54 -8.36)"/><path class="cls-20" d="M285.17,134.75v-1h1.3c0,.23-.13.5.25.66a24.11,24.11,0,0,0,3.54,1.56c1,.27,1.94.8,3,1s2,.61,3,.82,1.79,1,2.9.8h.32v.66a1.47,1.47,0,0,1-1.47.28,16.63,16.63,0,0,0-2.65-.68c-.92-.23-1.8-.61-2.71-.9a11,11,0,0,1-2.14-.72c-.71-.42-1.55-.5-2.2-.94a3.73,3.73,0,0,0-2.51-.63c-.44,0-.27-.34-.34-.56S285.27,134.89,285.17,134.75Z" transform="translate(-15.54 -8.36)"/><path class="cls-21" d="M294.29,100.22c-.33.89-.66,1.79-1,2.68a4.29,4.29,0,0,1-.35,1c-.1.16-.43.2-.67.22-.08,0-.27-.18-.27-.28,0-1.32-.87-2.39-1-3.66,0-.1-.09-.18-.14-.27a1.13,1.13,0,0,0-.17.23,2.68,2.68,0,0,0-.34,1.5c.26,1.55-.37,3-.33,4.58,0,.06-.24.16-.38.19s-.24-.1-.24-.15a5.21,5.21,0,0,1,.13-1.73,2.22,2.22,0,0,0,.16-1.06c-.11-1.5.58-2.92.36-4.43,0-.16.13-.37.25-.54.24-.34.56-.35.77,0a3.09,3.09,0,0,1,.56,1.38c0,1,.66,1.72.69,2.66,0,.09.09.17.14.26.11-.1.29-.18.33-.31.29-.85.56-1.72.83-2.58a4.67,4.67,0,0,1,.35-1.15c.14-.24.5-.34.76-.5a5.86,5.86,0,0,0,.19.72,9.51,9.51,0,0,1,.33,3.44,4.81,4.81,0,0,0,.29,2.33,3,3,0,0,1,0,1.44c0,.08-.23.18-.36.21s-.18-.08-.26-.14,0-.11,0-.16c.16-2-.55-3.9-.33-5.88,0-.27,0-.54,0-.81,0,0-.08-.11-.1-.11s-.21.07-.21.11C294.28,99.68,294.29,100,294.29,100.22Z" transform="translate(-15.54 -8.36)"/><path class="cls-18" d="M345.44,42.87a11.56,11.56,0,0,0-4.51.63,5.91,5.91,0,0,1-1.27,0c-.14,0-.27.2-.41.31h-.32c0-.49-.41-.28-.65-.33V43.2c.1-.13.29-.26.31-.4,0-.4,0-.82,0-1.23a2.61,2.61,0,0,0,2-.66,6.51,6.51,0,0,0,2.13-.28c.65-.23,1.45.12,2.12-.35.14-.1.42,0,.63,0Z" transform="translate(-15.54 -8.36)"/><path class="cls-15" d="M311.56,136.71c.17-.11.35-.32.51-.31,1.37.12,2.67-.58,4.05-.34a2.31,2.31,0,0,1-.64,1.79,2.08,2.08,0,0,0-.66,1.47,2.6,2.6,0,0,0-.33.25,4.39,4.39,0,0,0-.33.4c-.55.17-1-.33-1.48-.33h-2.43a2.44,2.44,0,0,1,.23-.69A5.25,5.25,0,0,0,311.56,136.71Z" transform="translate(-15.54 -8.36)"/><path class="cls-13" d="M246.39,82.62c-1.71-.93-2.9-2.47-4.26-3.8a1.06,1.06,0,0,1-.27-.84c.08-.34.38-.53.82-.6,1-.15,1.56.54,2.2,1a21.81,21.81,0,0,1,2.62,2.29,1.44,1.44,0,0,0,1.17.32c-.56.51-1.11,1-1.69,1.51C246.84,82.61,246.59,82.59,246.39,82.62Z" transform="translate(-15.54 -8.36)"/><path class="cls-16" d="M356.52,71.87c-.34-1.2-.53-2.43-1-3.6a2.28,2.28,0,0,1,0-.64c.7-.23,1.28.33,1.95.33,0,.09.06.25.1.25a5,5,0,0,1,1.86.73,3.73,3.73,0,0,0,.32,2.11,3.78,3.78,0,0,1,.33,2.12h-.33A5.52,5.52,0,0,0,356.52,71.87Z" transform="translate(-15.54 -8.36)"/><path class="cls-1" d="M299.18,138.66c-1.11.25-1.92-.59-2.9-.8s-2-.58-3-.82-1.94-.77-3-1a24.11,24.11,0,0,1-3.54-1.56c-.38-.16-.2-.43-.25-.66,1.48.45,3,.89,4.44,1.35a18.71,18.71,0,0,0,3.82.94c.5,0,1,.25,1.48.3a3.57,3.57,0,0,1,1.34.3c.21.12.64-.18,1-.29,0,.41-.06.79.3,1.17S299.07,138.28,299.18,138.66Z" transform="translate(-15.54 -8.36)"/><path class="cls-11" d="M352,54.6a8.77,8.77,0,0,1-1,2.61,10.09,10.09,0,0,1-1.28-2,59.54,59.54,0,0,0-4.31-5.76.81.81,0,0,0-.27-.11V48.08a.77.77,0,0,1,.82.34c1.36,2,3.36,3.5,5,5.31.31.35.69.17,1,.22Z" transform="translate(-15.54 -8.36)"/><path class="cls-12" d="M338.6,35.38l-1,.65a2.79,2.79,0,0,0-1.9.42,2.74,2.74,0,0,1-.7.23,14.08,14.08,0,0,0-.48-2.54,6,6,0,0,1-.17-1.37,3.13,3.13,0,0,0,1.95-1h1.3c.11.17.34.36.31.5C337.71,33.42,338.93,34.23,338.6,35.38Z" transform="translate(-15.54 -8.36)"/><path class="cls-22" d="M351.31,58.18c.55.12,1.11-.11,1.7.18s1.32,0,1.79.3,1.2-.14,1.6.48c.07.13.51,0,.77,0l.33.33.33,2.28h-1.31c0-.05,0-.15,0-.15a10.31,10.31,0,0,0-3.91-.83A6.18,6.18,0,0,1,351.31,58.18Z" transform="translate(-15.54 -8.36)"/><path class="cls-16" d="M352.61,60.79a10.31,10.31,0,0,1,3.91.83s0,.1,0,.15c-.1.65.31,1.13.53,1.69.29.72.92,1.34.78,2.22a5.78,5.78,0,0,1-.6-.11,8.45,8.45,0,0,0-3-.87C353.86,63.33,352.94,62.18,352.61,60.79Z" transform="translate(-15.54 -8.36)"/><path class="cls-23" d="M307,144.2c-.2,0-.53,0-.57.11a4.2,4.2,0,0,1-1.71,1.85l-1.31-1.3a13.57,13.57,0,0,0,1.17-1.36,6.19,6.19,0,0,0,.46-1.25l1.63-1.63a8.51,8.51,0,0,1,1.13,0A9.35,9.35,0,0,1,309,141c0,.16.07.38,0,.48-.55.7-1.15,1.36-1.7,2.06A2.06,2.06,0,0,0,307,144.2Z" transform="translate(-15.54 -8.36)"/><path class="cls-19" d="M361.08,108l-1,.32a1.88,1.88,0,0,1-1-2c.75.27.82-.5.89-.79a3.54,3.54,0,0,1,.7-2,.41.41,0,0,0-.06-.41c-.52-.34.25-.48.1-.74.23,0,.52-.14.66.24a5.52,5.52,0,0,0,1.95,2.69,4.86,4.86,0,0,0-.42.59,4.74,4.74,0,0,0-.24.51l.66.2A9.64,9.64,0,0,1,361.08,108Z" transform="translate(-15.54 -8.36)"/><path class="cls-15" d="M304.06,137c.87,0,1.73,0,2.59,0s1.54-.2,2.3-.31a3.55,3.55,0,0,1-.22.7c-.34.64-1,1.08-1.08,1.91-.22.24-.43.49-.66.73a1.91,1.91,0,0,1-.32.24,6.83,6.83,0,0,0-1-.31c-.89-.14-1.8-.22-2.7-.35-.09,0-.16-.2-.24-.31a5.94,5.94,0,0,1,.89-1C304.12,137.94,304.06,137.49,304.06,137Z" transform="translate(-15.54 -8.36)"/><path class="cls-21" d="M344.14,102.39c0,.69,0,1.29,0,1.88a2.3,2.3,0,0,1-.58,1.55,1.18,1.18,0,0,1-1.22.6,6.19,6.19,0,0,0-1.14,0c-1,0-1.58-.44-1.62-1.46,0-1.41-.06-2.82,0-4.23a9.5,9.5,0,0,1,.38-1.64c.09-.35.77-.66,1.24-.79a4.63,4.63,0,0,1,1.62,0,1.39,1.39,0,0,1,.81.35c.15.15.07.5.17.73A7.4,7.4,0,0,1,344.14,102.39Zm-.65-.06c0-.76,0-1.51,0-2.27a1.38,1.38,0,0,0-1.1-1.14c-.33,0-.65,0-1,0-.52,0-.74.3-.84.74,0,.21,0,.44,0,.65a9.57,9.57,0,0,0,0,5.08.58.58,0,0,0,.36.36,7.1,7.1,0,0,0,1.13,0,1.33,1.33,0,0,0,1.43-1.47C343.5,103.63,343.49,103,343.49,102.33Z" transform="translate(-15.54 -8.36)"/><path class="cls-21" d="M278.65,103.57c-.27-1.53.56-3.22.33-5-.05-.43.34-.36.57-.32a3.84,3.84,0,0,1,3,3.57,9.93,9.93,0,0,1-.7,3.29c-.19.76-1,1-1.64,1.27-1.41.49-1.58.35-1.59-1.14Zm.54-.18.11,0c0,.59,0,1.18,0,1.77s.23.6.66.59a1.08,1.08,0,0,0,.84-.35,2.51,2.51,0,0,0,.79-2.1c.92-1.21-.13-2.21-.38-3.29-.07-.31-.49-.56-.78-.78s-.76.08-.8.42C279.48,100.91,279.34,102.15,279.19,103.39Z" transform="translate(-15.54 -8.36)"/><path class="cls-24" d="M358.15,86.53c.16,0,.39-.07.48,0,1.26,1.18,2.79,2.08,3.76,3.58-.95.49-1,1.36-1,2.28-.92-.87-1.86-1.72-2.75-2.61a1,1,0,0,0-.83-.33Z" transform="translate(-15.54 -8.36)"/><path class="cls-21" d="M301.13,103.8c0-1.66,0-3.33,0-5,0-.4.09-.6.53-.54a7.3,7.3,0,0,0,.81,0c1.42,0,1.84.39,2.26,2v1.63a.8.8,0,0,1-.66,1c.05-.35-.05-.69.21-1,.49-.7-.13-1.39-.29-2-.08-.34-.77-.63-1.23-.79-.71-.23-1,0-1,.72,0,1.24,0,2.48,0,3.72,0,.55.4.52.64.41a2.4,2.4,0,0,1,1.33-.31c.1.54-.12.76-.65.66l-.27.1.27.22c.5.57,1,1.12,1.51,1.7.09.11,0,.36,0,.54-.14,0-.34,0-.43,0-.62-.59-1.21-1.21-1.83-1.81a.33.33,0,0,0-.54.26,5.47,5.47,0,0,0,0,.81c0,.3,0,.56-.41.49s-.2-.41-.25-.64Z" transform="translate(-15.54 -8.36)"/><path class="cls-21" d="M330.78,106.41l-.23.26c-.57-.57-1.14-1.15-1.72-1.71a.55.55,0,0,0-.41-.16c-.09,0-.2.19-.24.32-.14.41.27,1.22-.26,1.22-.73,0-.37-.81-.38-1.26,0-2,0-4,0-6,0-.81,0-.76.72-.84a2.31,2.31,0,0,1,2.37,1,1.83,1.83,0,0,0,.5.34c0,.74.05,1.48,0,2.21s-.2,1.39-1.94.61c-1-.51-1,.08-1,.67,0,.82.15.91.91.65l.72-.23c.11,0,.28-.08.31-.16.36-1.12.81-2.21.21-3.41a1.78,1.78,0,0,0-1.2-1c-.73-.2-.94,0-.95.73,0,.54,0,1.08,1,2.72.78,1.31.6,1.57.36,1.74-.47.34-.48.36-.05.66C330.06,105.19,330.77,105.52,330.78,106.41Z" transform="translate(-15.54 -8.36)"/><path class="cls-24" d="M356.52,106.73a11.39,11.39,0,0,1-1.3-2c-.23-.38-.49-.65-1-.56,0-.11,0-.24,0-.32a10.15,10.15,0,0,0,1.14-2.93c0-.24.31-.44.48-.66-.24,1.28.69,2.08,1.24,3a10.56,10.56,0,0,1,1.37,2.51c-.32.1-1-.25-.94.24C357.58,106.93,357,106.72,356.52,106.73Z" transform="translate(-15.54 -8.36)"/><path class="cls-21" d="M317.29,104.81c-.08,0-.19.09-.22.17-.22.45-.41.92-.63,1.36-.08.15-.23.37-.35.37-.43,0-.32-.37-.28-.59a1.68,1.68,0,0,1,.32-.83c1-1.08.6-2.13.06-3.23-.45-.9-.79-1.84-1.16-2.77a3,3,0,0,1-.2-.89c0-.15.17-.31.27-.46.12.12.32.23.36.37a37.64,37.64,0,0,0,1.64,4.2c0,.09.08.18.12.27a2.14,2.14,0,0,0,.2-.32c.55-1.18,1.08-2.37,1.64-3.54a1.85,1.85,0,0,1,.46-.61c.07-.07.29,0,.42,0s.11.2.08.27-.19.25-.25.39c-.62,1.36-1.23,2.73-1.84,4.11a1.83,1.83,0,0,0,.07,1.77c.5.89.45,1.94.22,1.78a1.94,1.94,0,0,1-.8-1.6C317.42,105,317.34,104.9,317.29,104.81Z" transform="translate(-15.54 -8.36)"/><path class="cls-14" d="M255.51,100.87a10.53,10.53,0,0,1-3.3-.87,9.7,9.7,0,0,0-2.24-.76c0-.2,0-.45.12-.59.49-.58,1-1.13,1.51-1.69A6.3,6.3,0,0,0,254,98.24c.52.2.6-.21.55-.63.09,0,.24,0,.26.11C255.05,98.77,255.28,99.82,255.51,100.87Z" transform="translate(-15.54 -8.36)"/><path class="cls-21" d="M331.43,99.56a5.33,5.33,0,0,1,0-.8c0-.18.19-.49.24-.48.76.14.67-.34.76-.84a4.35,4.35,0,0,1,.68-1.34.45.45,0,0,1,.42-.1.43.43,0,0,1,.16.39,5.52,5.52,0,0,1-.51.92c-.4.61-.33.85.32,1,.16,0,.33,0,.49,0a1.23,1.23,0,0,1,.33.19l-.27.13c-.24.07-.49.13-.72.22-1,.37-1.24.66-1.25,1.69,0,.87,0,1.73,0,2.6a.53.53,0,0,0,.35.36c.54,0,1.08,0,1.62,0a.38.38,0,0,1,.28.28.43.43,0,0,1-.21.34,5.45,5.45,0,0,1-.81,0c-.93,0-.87,0-.94,1,0,.66.22.73.74.68a3.82,3.82,0,0,1,1.12.06c.16,0,.41.31.39.44s-.27.44-.42.44c-.83,0-1.7.26-2.46-.29.23-1.5-.41-2.93-.33-4.41C331.47,101.19,331.43,100.38,331.43,99.56Z" transform="translate(-15.54 -8.36)"/><path class="cls-24" d="M357.5,93.37a5.27,5.27,0,0,0,1,1.52,29.57,29.57,0,0,1,1.92,2.25c.08.09,0,.31,0,.47-.53,0-.31.47-.31.73,0,.69-.37.92-1,.9-.88-.28-1.22-1.16-1.52-1.8s-.71-.39-1.09-.48a17.93,17.93,0,0,0,.72-3.48S357.41,93.41,357.5,93.37Z" transform="translate(-15.54 -8.36)"/><path class="cls-21" d="M311.15,104.13c-1.32,0-1.44.08-1.87,1.36a2.39,2.39,0,0,1-.29.69c-.11.13-.36.15-.54.21,0-.18-.12-.39-.06-.55a52,52,0,0,0,1.83-5.4c.17-.7.86-1.2.7-2a.9.9,0,0,1,.39-.17.31.31,0,0,1,.24.16,5.29,5.29,0,0,1,.32,1.32,13.57,13.57,0,0,0,.56,2.85,10.36,10.36,0,0,0,.74,2.79,1.65,1.65,0,0,1,0,.8c0,.08-.13.21-.2.2s-.41-.07-.41-.13c0-.47-.44-.78-.39-1.32.07-.8,0-.8-.87-.81Zm.79-1a13.68,13.68,0,0,0-.71-2.6c0-.09-.08-.18-.13-.27a2.27,2.27,0,0,0-.19.34c-.28.75-.57,1.49-.82,2.25a4.14,4.14,0,0,0-.09.87,8.49,8.49,0,0,0,.88,0,2,2,0,0,0,.57-.19A4.73,4.73,0,0,0,311.94,103.12Z" transform="translate(-15.54 -8.36)"/><path class="cls-21" d="M346.42,102.2c.91,1.18.9,1.48.75,1.64-.54.57-.56.56-.42,1.26a.85.85,0,0,1-.16,0c-.74-.06-.94.08-1.15.76a2.35,2.35,0,0,1-.32.52l-.21.31a.75.75,0,0,1-.11-.28q0-3.89,0-7.77c0-.13.13-.36.2-.36.64,0,1.41-.22,1.9.06a2.78,2.78,0,0,1,1.47,1.94A5.87,5.87,0,0,1,348,103c0,.09-.38.08-1.56-.83-1-.25-.95.45-1,1.15,0,.53.31.5.61.44a1.94,1.94,0,0,0,1.67-2,5.31,5.31,0,0,1,0-.8c.25-1-.45-1.49-1.05-2a1.53,1.53,0,0,0-1.05-.1c-.09,0-.17.45-.18.69C345.43,100.18,345.44,100.71,346.42,102.2Z" transform="translate(-15.54 -8.36)"/><path class="cls-21" d="M268.25,106c-.06.16-.08.32-.14.33s-.35.07-.43,0a1.35,1.35,0,0,1-.42-.62,8.65,8.65,0,0,1,0-1.14c0-.14-.08-.4-.14-.4a7.79,7.79,0,0,0-1.93,0c-.24,0-.42.53-.59.83s-.35.83-.59,1.21c-.07.12-.35.13-.54.13,0,0-.16-.33-.1-.41.71-1,.63-2.3,1.24-3.39a16.7,16.7,0,0,0,1-3.3,4,4,0,0,1,.35-.82c.06-.1.27-.14.41-.15s.19.12.21.2c.33,1.71.64,3.42,1,5.12.13.63.35,1.26.52,1.89C268.16,105.67,268.21,105.87,268.25,106ZM265,102.9c-.08.87.18,1.09.82.87.18-.06.36-.3.52-.28.75.11.75-.53.56-.78s-.23-.78-.3-1.19a6,6,0,0,0-.31-1c0-.1-.09-.19-.13-.28-.11.09-.29.16-.33.28C265.5,101.37,265.21,102.23,265,102.9Z" transform="translate(-15.54 -8.36)"/><path class="cls-21" d="M338.28,104.45c-.2,0-.41-.06-.61-.11l-1-.34a9.33,9.33,0,0,1,1-.45,1.1,1.1,0,0,1,1.53,1.09,1.81,1.81,0,0,1-1.37,2,2.29,2.29,0,0,1-1.89-.89c-.86-1.5-.71-3.14-.59-4.75a9,9,0,0,1,.59-1.69c.23-.82,1-1,1.58-1.35a.74.74,0,0,1,.94.39.46.46,0,0,1,0,.42.47.47,0,0,1-.41.13c-.24-.06-.58-.35-.66-.28a2.27,2.27,0,0,0-.81.94c-.36,1.06-.94,2.09-.68,3.29a12.92,12.92,0,0,0,.41,2.11c.14.36.33,1,1.07.81a2.74,2.74,0,0,1,.81,0A.82.82,0,0,0,338.28,104.45Z" transform="translate(-15.54 -8.36)"/><path class="cls-25" d="M344.14,120.42c.09,0,.26.07.26.11a20.56,20.56,0,0,1,.4,4.15,7.51,7.51,0,0,0,0,.95c-.47,0-.93,0-1.27.42-.11.16-.45.16-.68.23-.11-.13-.31-.27-.31-.4,0-1.28,0-2.56,0-3.83Z" transform="translate(-15.54 -8.36)"/><path class="cls-24" d="M357.83,78.71c1.25.87,2.49,1.74,3.76,2.6.11.07.31,0,.47,0l.33.65c-.6,0-1,.19-1,.87,0,.36,0,.72,0,1.08a2.06,2.06,0,0,1-.71-.24c-.7-.54-1.37-1.14-2.07-1.7-.1-.08-.32,0-.48,0a15.76,15.76,0,0,1-.31-1.64A14.59,14.59,0,0,1,357.83,78.71Z" transform="translate(-15.54 -8.36)"/><path class="cls-25" d="M336.32,130.84c.11-.65.26-1.3.32-2s0-1.3,0-1.95a6.09,6.09,0,0,1,2.28-1.62c0,1.24,0,2.48,0,3.72a2.39,2.39,0,0,1-.35,1.16c-.2,0-.5,0-.57.12C337.6,131,336.94,130.83,336.32,130.84Z" transform="translate(-15.54 -8.36)"/><path class="cls-25" d="M329.48,134.75c.16-1.07.73-2.06.64-3.18,0-.14-.21-.27-.32-.4a5.32,5.32,0,0,1,1.75-1c.42-.15.58-.8,1.19-.64a22.59,22.59,0,0,1-.65,3.92,2.29,2.29,0,0,0,0,.64,2.14,2.14,0,0,0-1.18.28A1.76,1.76,0,0,1,329.48,134.75Z" transform="translate(-15.54 -8.36)"/><path class="cls-21" d="M300.15,105.76c-.83,1-2,.6-3,.6-.3,0-.8-.52-.85-.85-.2-1.46-.78-2.93-.11-4.44a3.3,3.3,0,0,0,.07-1.1,1.68,1.68,0,0,1,1.68-1.71c.21,0,.43,0,.64,0a1.69,1.69,0,0,1,1.92,2h-.33c-.32-.8-.63-1.51-1.77-1.33-.93.14-1.44.52-1.49,1.45a2.59,2.59,0,0,1-.1,1.09c-.7,1.32.11,2.56.13,3.83,0,.17.37.45.58.47a4.63,4.63,0,0,0,1.78,0c.35-.1.58-.61.87-.93h.33Z" transform="translate(-15.54 -8.36)"/><path class="cls-25" d="M314.82,139.32a2.08,2.08,0,0,1,.66-1.47,2.31,2.31,0,0,0,.64-1.79,5.16,5.16,0,0,1,2.61-.65,2.76,2.76,0,0,1-.43,1.89,6.33,6.33,0,0,0-.88,2.34h-.32a1.87,1.87,0,0,0-1.16-.34A6,6,0,0,1,314.82,139.32Z" transform="translate(-15.54 -8.36)"/><path class="cls-21" d="M274.09,106.45c-.42,0-.84-.08-1.25-.17-.13,0-.23-.21-.35-.33.11-.06.22-.18.34-.19.59,0,1.19,0,1.78,0s.58-.4.43-.59,0-1-.7-1.08c-.35-.07-.62-.54-.95-.82a3.59,3.59,0,0,1,.29-5.11.88.88,0,0,1,1.12,0c.46.26,1,.35.91,1.06,0,.13-.12.32-.22.35a.53.53,0,0,1-.41-.14c-.71-.74-1.34-.68-1.64.18-.68,1.88-.33,2.81,1.56,4.21.79.59,1,2,.32,2.47C275,106.48,274.51,106.4,274.09,106.45Z" transform="translate(-15.54 -8.36)"/><path class="cls-21" d="M272.46,98.68a18.52,18.52,0,0,1-.77,2.12,9.32,9.32,0,0,0-1.19,5,1,1,0,0,1-.08.46c0,.06-.18.1-.27.09s-.25-.07-.26-.13a2.72,2.72,0,0,1,0-.64c.18-1.92-.61-3.61-1.3-5.32-.23-.56-.44-1.12-.65-1.68,0-.08,0-.26.09-.28s.37-.1.42,0a2.65,2.65,0,0,1,.45.78c.35,1,.66,2.12,1,3.17a.42.42,0,0,0,.34.22.43.43,0,0,0,.29-.27c.24-.72.44-1.45.67-2.17s.42-1.23.66-1.84c0-.11.2-.18.31-.26.11.14.22.27.32.42S272.46,98.47,272.46,98.68Z" transform="translate(-15.54 -8.36)"/><path class="cls-17" d="M353.92,46.45h2.73a1.46,1.46,0,0,1,1,.28c.5.38.69.6.32,1-.53.57-1,1.2-2,1a13.83,13.83,0,0,0-2.41,0,7,7,0,0,0,0-1.12A1.75,1.75,0,0,1,353.92,46.45Z" transform="translate(-15.54 -8.36)"/><path class="cls-25" d="M322.64,136.71a4.57,4.57,0,0,1,.59-1.78c.12-.21.33-.72-.27-.83a8.44,8.44,0,0,1,2.93-1,6.91,6.91,0,0,1-1,3.58Z" transform="translate(-15.54 -8.36)"/><path class="cls-20" d="M304.06,72.19c0,.45-.35.35-.57.32-.5-.07-1-.22-1.48-.31s-1,.2-1.33-.3c-1,.22-1.88-.41-2.78-.71-1.37-.44-2.67-1.07-4-1.59-.38-.15-.2-.43-.24-.66a7.37,7.37,0,0,1,1.56.45,7.76,7.76,0,0,0,2.84.84c.5.06.92.49,1.46.34.05.23-.15.6.25.63s.68.23.73-.31h1c0,.23-.15.6.24.64.71.09,1.36.53,2.12.35C303.87,71.87,304,72.09,304.06,72.19Z" transform="translate(-15.54 -8.36)"/><path class="cls-24" d="M356.52,71.87a5.52,5.52,0,0,1,3.26,1.3v2.61a4.62,4.62,0,0,1-1.42-.9c-.13-.13-.52-.09-.74,0s-.08.37-.12.57c-.11-.13-.29-.25-.31-.4-.14-.89-.22-1.79-.35-2.69C356.81,72.19,356.63,72,356.52,71.87Z" transform="translate(-15.54 -8.36)"/><path class="cls-2" d="M274.41,41.89c0-1.28,0-2.57,0-3.86,0-1.57.54-3.1.35-4.69-.05-.38.4-.2.63-.25.43-.05.79,0,.64.57a38.2,38.2,0,0,0-.7,4.39,26.68,26.68,0,0,0-.27,3.08A.76.76,0,0,1,274.41,41.89Z" transform="translate(-15.54 -8.36)"/><path class="cls-25" d="M307.65,139.32c0-.83.74-1.27,1.08-1.91a3.55,3.55,0,0,0,.22-.7h2.61a5.25,5.25,0,0,1-1.08,2.24,2.44,2.44,0,0,0-.23.69h-.32a1.87,1.87,0,0,0-1.16-.34A6,6,0,0,1,307.65,139.32Z" transform="translate(-15.54 -8.36)"/><path class="cls-24" d="M354.24,64.7a8.45,8.45,0,0,1,3,.87,5.78,5.78,0,0,0,.6.11V66c-.11.14-.3.26-.31.4,0,.52,0,1,0,1.56-.67,0-1.25-.56-1.95-.33a9.06,9.06,0,0,1-1-2.09C354.44,65.27,354.35,65,354.24,64.7Z" transform="translate(-15.54 -8.36)"/><path class="cls-10" d="M331.43,99.56c0,.82,0,1.63,0,2.44-.08,1.48.56,2.91.33,4.41h-1c0-.89-.72-1.22-1.32-1.63-.43-.3-.42-.32.05-.66a4.25,4.25,0,0,0,.62-.65,1.73,1.73,0,0,0,1-1.7c.07-.73,0-1.47,0-2.21Z" transform="translate(-15.54 -8.36)"/><path class="cls-3" d="M254.54,97.61c.05.42,0,.83-.55.63A6.3,6.3,0,0,1,251.6,97c.5-.66,1-1.32,1.49-2,.12-.14.38-.33.5-.29s.55.27.59.47C254.35,96,254.43,96.79,254.54,97.61Z" transform="translate(-15.54 -8.36)"/><path class="cls-2" d="M283.21,105.76c.13-1.76-.55-3.46-.33-5.21,0-.27,0-.55,0-.81a2.68,2.68,0,0,1,.36-1.29c.22-.23.79-.15,1.2-.18a8.52,8.52,0,0,1,1.13,0c.08,0,.15.11.22.17a1.3,1.3,0,0,1-.26.14.29.29,0,0,1-.16,0,1.51,1.51,0,0,0-1.41.46,2.38,2.38,0,0,0-.42,1.41,18.39,18.39,0,0,0,0,2.1c0,.65.29.88,1,.91.11,0,.22,0,.32,0,.31,0,.62.08.93.12-.25.42-.65.17-1,.19-1.32.07-1.44.26-.95,1.64a1.22,1.22,0,0,1,0,.33Z" transform="translate(-15.54 -8.36)"/><path class="cls-7" d="M305,142.25a6.19,6.19,0,0,1-.46,1.25,13.57,13.57,0,0,1-1.17,1.36l-.32-.33c-.48-.64-1-1.26-1.42-1.92a2.42,2.42,0,0,1-.21-.69c.59,0,1.19,0,1.77,0S304.44,142.14,305,142.25Z" transform="translate(-15.54 -8.36)"/><path class="cls-25" d="M304.06,137c0,.45.06.9-.41,1.25a5.94,5.94,0,0,0-.89,1h-.33l-1-.33-1-.33c-.1-.42.16-.66.43-.92s.68-.52.55-1a10.36,10.36,0,0,0,1.31.31A9.26,9.26,0,0,0,304.06,137Z" transform="translate(-15.54 -8.36)"/><path class="cls-24" d="M352.94,107.38a2.25,2.25,0,0,0,.2,1.06,9.34,9.34,0,0,0,1.1,1.88c0,.09-.06.25-.11.26a6.13,6.13,0,0,0-2.29.64c-.25.13-.73.34-.86-.25,0,0,0-.12,0-.16a15.34,15.34,0,0,1,1-1.83C352.33,108.46,352.35,107.75,352.94,107.38Z" transform="translate(-15.54 -8.36)"/><path class="cls-21" d="M305.37,99.56c.12-.42-.27-1.23.25-1.23.74,0,.39.82.38,1.26-.06,1.8-.21,3.59-.3,5.39,0,.76-.17.73.78.8.49,0,1.16-.42,1.49.36-.4.58-1,.12-1.45.27-.24.08-.45.24-.69.32s-.79-.32-.68-.58c.44-1.09.11-2.22.22-3.33V99.56Z" transform="translate(-15.54 -8.36)"/><path class="cls-17" d="M335,36.68a2.74,2.74,0,0,0,.7-.23,2.79,2.79,0,0,1,1.9-.42c0,.66-.15,1.36.33,1.95-.05.54-.48.24-.73.33s-.79-.31-.9.32h-1C335.34,38,334.79,37.39,335,36.68Z" transform="translate(-15.54 -8.36)"/><path class="cls-21" d="M313.51,102.5c0-1.3,0-2.59,0-3.89,0-.12.25-.23.38-.35.08.11.24.22.24.33q0,3.64,0,7.29a1.28,1.28,0,0,1-.21.56c-.06.11-.22.16-.33.23a.73.73,0,0,1-.1-.28c0-.43,0-.86,0-1.29Z" transform="translate(-15.54 -8.36)"/><path class="cls-24" d="M335.34,38.63h1c.37.93,1.1,1.73,1,2.82,0,0,.17.08.26.12l-.32.65h-.65c-.19-.72-.75-.68-1.31-.65Z" transform="translate(-15.54 -8.36)"/><path class="cls-17" d="M336.32,31.79a3.13,3.13,0,0,1-1.95,1,5.37,5.37,0,0,1-.66-2.28l2.29-.65c0,.52,0,1,0,1.56C336,31.53,336.21,31.66,336.32,31.79Z" transform="translate(-15.54 -8.36)"/><path class="cls-2" d="M262.36,104.13a7.59,7.59,0,0,0-1.26.47,1,1,0,0,0-.36.64,7.65,7.65,0,0,0,0,1c0,.06-.12.12-.19.17a.29.29,0,0,1-.11-.11,1.67,1.67,0,0,1,0-.32c0-2.36,0-4.73,0-7.1,0-.53.2-.62.65-.59s1.16-.09,1.64.34l-.32.32c-.33,0-.65,0-1,0s-.7,0-.68.57c.05,1.08,0,2.16,0,3.24,0,.9.16,1,1.3,1.08Z" transform="translate(-15.54 -8.36)"/><path class="cls-18" d="M345.12,48.08v1.31c-.11,0-.27,0-.31,0-.67-.75-1.32-1.52-2-2.29,0-.06,0-.2,0-.31a7.82,7.82,0,0,1,1.15-.31,7.09,7.09,0,0,1,1.13,0Z" transform="translate(-15.54 -8.36)"/><path class="cls-15" d="M301.46,136.71c.13.51-.26.75-.55,1s-.53.5-.43.92h-1.3c-.11-.38-.11-.86-.36-1.11s-.28-.76-.3-1.17c.5.11,1,.26,1.49.32A14,14,0,0,0,301.46,136.71Z" transform="translate(-15.54 -8.36)"/><path class="cls-21" d="M262.36,98.91l.32-.32a2,2,0,0,1,1.26,1.6,4.25,4.25,0,0,1-.27,2.73c-.18.34-.43.19-.66.23a.86.86,0,0,1,0-.16C263.56,100.7,263.66,100.43,262.36,98.91Z" transform="translate(-15.54 -8.36)"/><path class="cls-2" d="M325.89,102.17c0,1.3,0,2.6,0,3.9,0,.11-.26.22-.39.34-.08-.12-.24-.23-.24-.34,0-1.3,0-2.6,0-3.9Z" transform="translate(-15.54 -8.36)"/><path class="cls-21" d="M325.24,99.56c0-.23.16-.59-.25-.64s-.75,0-1.13,0c-.09,0-.23-.21-.23-.32s.15-.3.24-.3c.75,0,1.51,0,2.26,0,.32,0,.63,0,.95.06.05,0,.11.17.11.26s-.05.26-.1.27c-.31,0-.63,0-.94.07s-.21.41-.26.64Z" transform="translate(-15.54 -8.36)"/><path class="cls-21" d="M283.21,105.76h.65c.77,0,1.59-.2,2.3.32a1.31,1.31,0,0,0,.27.12c-.05.07-.09.17-.16.2a3.9,3.9,0,0,1-2.6.27A.72.72,0,0,1,283.21,105.76Z" transform="translate(-15.54 -8.36)"/><path class="cls-14" d="M288.75,143.55c-.16,0-.37-.06-.48,0s-.42.51-.8.18a1.36,1.36,0,0,1-.38-.82c-.14-.74.35-1.31.36-2,.6.43.37,1.31.94,1.79C288.6,142.91,288.64,143.28,288.75,143.55Z" transform="translate(-15.54 -8.36)"/><path class="cls-17" d="M330.78,25c.16,0,.37.06.48,0s.42-.52.8-.19a.8.8,0,0,1,.35.83c-.11.44-.22.88-.32,1.32C331.51,26.34,331.3,25.54,330.78,25Z" transform="translate(-15.54 -8.36)"/><ellipse class="cls-24" cx="310.03" cy="92.51" rx="0.46" ry="1.84"/><path class="cls-21" d="M321.67,104.13a7.15,7.15,0,0,1-.8,0,2,2,0,0,1-.48-.2c.16-.15.3-.41.46-.42.75,0,1.49,0,2.24,0a.44.44,0,0,1,0,.3.76.76,0,0,1-.82.34C322.1,104.11,321.89,104.13,321.67,104.13Z" transform="translate(-15.54 -8.36)"/><path class="cls-10" d="M300.15,105.76l.33-1v-1h.65v2Z" transform="translate(-15.54 -8.36)"/><path class="cls-2" d="M300.48,103.8v1h-.33v-4.56h.33Z" transform="translate(-15.54 -8.36)"/><path class="cls-17" d="M319.05,13.54l-.32.33c-.68-.3-1.36-.59-2-.9-.09,0-.11-.22-.16-.33l.29-.07a.29.29,0,0,1,.16,0A11.07,11.07,0,0,1,319.05,13.54Z" transform="translate(-15.54 -8.36)"/><path class="cls-20" d="M305.37,99.56v2.29h-.65v-1.63c.1-.09.22-.16.32-.25S305.26,99.7,305.37,99.56Z" transform="translate(-15.54 -8.36)"/><path class="cls-21" d="M348.06,106.3a1.18,1.18,0,0,1-.09.34.29.29,0,0,1-.21,0c-.34-.39-.68-.78-1-1.18a.32.32,0,0,1,0-.3c.05-.06.22-.05.3,0C347.6,105.36,348,105.68,348.06,106.3Z" transform="translate(-15.54 -8.36)"/><path class="cls-18" d="M294.94,12.57l-.33-.33c.05-.52.45-.3.71-.31a5.29,5.29,0,0,1,.88.11,7.34,7.34,0,0,0-.77.21A2.58,2.58,0,0,0,294.94,12.57Z" transform="translate(-15.54 -8.36)"/><path class="cls-1" d="M300.48,70.89c-.05.54-.48.33-.73.31s-.2-.4-.25-.63C299.82,70.69,300.33,70.26,300.48,70.89Z" transform="translate(-15.54 -8.36)"/><path class="cls-21" d="M262.36,104.13l-.33-.33a.6.6,0,1,1,.33.33Z" transform="translate(-15.54 -8.36)"/><path class="cls-10" d="M279.46,57.21c.15.14.37.27.43.45a2.28,2.28,0,0,1,0,.74s-.07.07-.11.11c-.15-.4-.29-.79-.43-1.19C279.35,57.29,279.43,57.24,279.46,57.21Z" transform="translate(-15.54 -8.36)"/><path class="cls-11" d="M338.28,104.45a.82.82,0,0,1,0,1.31Z" transform="translate(-15.54 -8.36)"/><path class="cls-18" d="M294.29,100.22c0-.27,0-.54,0-.81,0,0,.13-.09.21-.11s.1.07.1.11c0,.27,0,.54,0,.81Z" transform="translate(-15.54 -8.36)"/><path class="cls-2" d="M278.32,42.87c.63.15.2.66.33,1C278,43.69,278.45,43.19,278.32,42.87Z" transform="translate(-15.54 -8.36)"/><path class="cls-10" d="M280.22,59l.19-.43a3.58,3.58,0,0,1,.18.64c0,.09-.09.2-.14.31Z" transform="translate(-15.54 -8.36)"/><path class="cls-13" d="M268.55,31.79c-.25-.05-.63.16-.65-.32C268.14,31.51,268.52,31.3,268.55,31.79Z" transform="translate(-15.54 -8.36)"/><path class="cls-21" d="M304.06,102.82c-.05.25.17.63-.32.65C303.79,103.23,303.58,102.85,304.06,102.82Z" transform="translate(-15.54 -8.36)"/><path class="cls-18" d="M345.44,40.26l.33-.32Z" transform="translate(-15.54 -8.36)"/><path class="cls-20" d="M305.37,102.5v.32l-.27-.22Z" transform="translate(-15.54 -8.36)"/><path class="cls-17" d="M353.59,33.42h-.33v-.33Z" transform="translate(-15.54 -8.36)"/><path class="cls-17" d="M353.12,33.09,353,32.9c.07,0,.18-.07.2,0a1,1,0,0,1,.09.24Z" transform="translate(-15.54 -8.36)"/><path class="cls-13" d="M272.46,32.44l-.33-.32Z" transform="translate(-15.54 -8.36)"/><path class="cls-10" d="M303.09,104.45l-.27-.22.27-.1Z" transform="translate(-15.54 -8.36)"/><path class="cls-17" d="M353.59,48.73l-.33.33Z" transform="translate(-15.54 -8.36)"/><path class="cls-25" d="M326.22,132.8l-.33.33Z" transform="translate(-15.54 -8.36)"/><path class="cls-1" d="M286.14,133.78h-.32l.22-.27Z" transform="translate(-15.54 -8.36)"/><path class="cls-11" d="M285.82,135.73a3.73,3.73,0,0,1,2.51.63c.65.44,1.49.52,2.2.94a11,11,0,0,0,2.14.72c.91.29,1.79.67,2.71.9a16.63,16.63,0,0,1,2.65.68,1.47,1.47,0,0,0,1.47-.28l1.31,1.63v.65c-.57,0-1.21.18-1.61-.46-.05-.08-.17-.2-.24-.18-1.24.22-2.26-.64-3.46-.71a7,7,0,0,1-2.45-.73,12.94,12.94,0,0,0-3.57-1.19.69.69,0,0,1-.41-.17A1.5,1.5,0,0,0,287,138c-.12.08-.32,0-.48,0l-.33-.32Z" transform="translate(-15.54 -8.36)"/><path class="cls-14" d="M285.82,135.73l.32,2c-.2,0-.45,0-.59.12-1.75,1.32-3.87,1.93-5.71,3.07-.34.21-.79-.15-.87-.62a2,2,0,0,1,1-1.92c1.7-1,3.4-2,5.08-3,.12-.07.09-.38.13-.59.1.14.26.26.31.42S285.38,135.73,285.82,135.73Z" transform="translate(-15.54 -8.36)"/><path class="cls-17" d="M361.41,67c.26.21.51.56.79.6a6.16,6.16,0,0,1,2.34,1c.93.51,1.88,1,2.78,1.54.27.17.64.71.56.84-.22.38-.49.86-1,.87s-1.43.16-2-.34a1.52,1.52,0,0,0-1.18-.3c-.35-.88-1.27-1-1.95-1.24a4,4,0,0,1-1.63-1V66.66c.23.07.47.15.71.21A5.59,5.59,0,0,0,361.41,67Z" transform="translate(-15.54 -8.36)"/><path class="cls-17" d="M357.83,61.77l-.33-2.28c.5.07,1.09-.22,1.49.32a45.21,45.21,0,0,1,6,2c.38.12.71.33.64.76s-.2.68-.42.78c-.58.26-1.11.63-1.88.27a17.55,17.55,0,0,0-2.9-.83,3.69,3.69,0,0,1-1.76-.62C358.42,62,357.9,62.37,357.83,61.77Z" transform="translate(-15.54 -8.36)"/><path class="cls-17" d="M363.69,75.13c.12.17.23.48.34.48,1.11,0,1.5,1.06,2.31,1.5a12.86,12.86,0,0,1,2.08,1.63c.22.18.52.62.45.74a1.75,1.75,0,0,1-.91.82c-.53.1-1.17.25-1.62-.37-.11-.16-.46-.17-.69-.24s-.37-.51-.62-.64a15.94,15.94,0,0,1-2.64-1.64V74.8c.2,0,.4.06.59.11S363.45,75.05,363.69,75.13Z" transform="translate(-15.54 -8.36)"/><path class="cls-19" d="M362.39,77.41A15.94,15.94,0,0,0,365,79.05c.25.13.41.42.62.64a4.12,4.12,0,0,0-.17,3.19c.13.47.08.92.17,1.37-.52.13-.8-.23-1-.56-.33-.48-.79-.42-1.25-.42,0-.71-.46-1-1-1.3l-.33-.65c0-1.18-.56-2.31-.31-3.51,0-.15.2-.27.31-.4Z" transform="translate(-15.54 -8.36)"/><path class="cls-19" d="M363.69,75.13c-.24-.08-.47-.16-.71-.22s-.39-.07-.59-.11a3.72,3.72,0,0,0-.61-.64c-.54-.36-1.11-.66-1.67-1a3.78,3.78,0,0,0-.33-2.12,3.73,3.73,0,0,1-.32-2.11h.65a4,4,0,0,0,1.63,1c.68.21,1.6.36,1.95,1.24-.69.31-.43,1-.28,1.32C363.87,73.41,363.6,74.27,363.69,75.13Z" transform="translate(-15.54 -8.36)"/><path class="cls-19" d="M361.41,98.26c.63-.11.21-.61.33-.9s.33-.58.3-.84a4.11,4.11,0,0,1,.67-2.17H363c.52,1,1.68,1.46,1.95,2.61-.1.32-.23.65-.32,1a8.08,8.08,0,0,0-.31,1.29,13.61,13.61,0,0,0,0,1.43c0,.82,0,.82-1,.86-.35-.42-.3-1.14-1-1.3,0-.2,0-.48-.11-.58A4.66,4.66,0,0,1,361.41,98.26Z" transform="translate(-15.54 -8.36)"/><path class="cls-17" d="M363.37,83.27c.46,0,.92-.06,1.25.42.23.33.51.69,1,.56.84.89,1.64,1.82,2.53,2.67a1.18,1.18,0,0,1,.39,1.13.75.75,0,0,1-.82.76H366.3c.06-.41-.19-.5-.51-.73a25.15,25.15,0,0,1-2.42-2.2Z" transform="translate(-15.54 -8.36)"/><path class="cls-19" d="M357.83,61.77c.07.6.59.18.84.36a3.69,3.69,0,0,0,1.76.62,3.89,3.89,0,0,0,.56,2.32,3.31,3.31,0,0,1,.42,1.91,5.59,5.59,0,0,1-.59-.11c-.24-.06-.48-.14-.71-.21a3.4,3.4,0,0,0-2.28-.66v-.32c.14-.88-.49-1.5-.78-2.22-.22-.56-.63-1-.53-1.69Z" transform="translate(-15.54 -8.36)"/><path class="cls-19" d="M363.37,85.88a25.15,25.15,0,0,0,2.42,2.2c.32.23.57.32.51.73-.16,0-.43,0-.46,0a3.42,3.42,0,0,0-.5,1.21c-.07,1,0,2,0,3a6.55,6.55,0,0,1-.81-.67.86.86,0,0,0-.82-.31c.05-.84-.67-1.29-1-1.95.11-.71.26-1.42.32-2.14s0-1.4,0-2.1Z" transform="translate(-15.54 -8.36)"/><path class="cls-17" d="M362.39,100.22c.68.16.63.88,1,1.3.49.87,1,1.73,1.46,2.62a2.16,2.16,0,0,1,.16.73c.05.37,0,.62-.5.57a10.46,10.46,0,0,0-1.12,0,5.52,5.52,0,0,1-1.95-2.69c-.14-.38-.43-.2-.66-.24v-.65a1.83,1.83,0,0,0,1-1.06C361.84,100.56,362.17,100.41,362.39,100.22Z" transform="translate(-15.54 -8.36)"/><path class="cls-17" d="M363.69,92.07a.86.86,0,0,1,.82.31,6.55,6.55,0,0,0,.81.67c0,.2,0,.44.12.59a19.27,19.27,0,0,0,1.59,1.9c.33.34.23.69.23,1a.53.53,0,0,1-.34.37c-.64,0-1.28,0-1.93,0-.27-1.15-1.43-1.64-1.95-2.61A5.35,5.35,0,0,1,363.69,92.07Z" transform="translate(-15.54 -8.36)"/><path class="cls-26" d="M350.33,118.46a2,2,0,0,1,1.25-.34c.12,0,.25-.2.38-.31h2c.1.13.27.25.31.4.2.7.3,1.44,1,1.88.11,1.23-.81,2-1.39,2.83-.46.7-1.31,1.07-1.63,1.93-.05.14-.58.09-.89.13a11.83,11.83,0,0,1-.34-3.08c0-.16-.2-.34-.31-.5Z" transform="translate(-15.54 -8.36)"/><path class="cls-26" d="M309.93,139.64h2.75c.52,0,.93.5,1.48.33-.07.23-.15.47-.21.71a5.59,5.59,0,0,0-.11.59,8.74,8.74,0,0,0-1.35,2.08,3.18,3.18,0,0,0-.28,1.18,4.14,4.14,0,0,1-1.51-.26,2.06,2.06,0,0,0-1.81.13,1.81,1.81,0,0,1-1.89-.2,2.06,2.06,0,0,1,.24-.71c.55-.7,1.15-1.36,1.7-2.06.08-.1,0-.32,0-.48C309.47,140.66,310,140.36,309.93,139.64Z" transform="translate(-15.54 -8.36)"/><path class="cls-26" d="M317.1,139.64h.32c.37.53.81.32,1.29.2.86-.22,1.75-.35,2.62-.52a2.65,2.65,0,0,1-.33,1.77,3.87,3.87,0,0,0-.64,1.81c-.71-.23-1.3.27-2,.34s-1.23-.22-1.84.27c-.29.24-.93,0-1.42,0,.07-.23.14-.47.22-.7.14-.42.29-.84.43-1.25A5,5,0,0,0,317.1,139.64Z" transform="translate(-15.54 -8.36)"/><path class="cls-26" d="M338.6,132.15a1.7,1.7,0,0,0,1.18-.32,19.41,19.41,0,0,0,2.58-2c.07-.08.32,0,.48,0,0,.77-.21,1.6.64,2.14.07.05,0,.3,0,.46a9,9,0,0,1-1.8,1.37,28.52,28.52,0,0,0-2.71,2,2.62,2.62,0,0,1-.7.23c-.23-1,.29-1.95.32-2.93Z" transform="translate(-15.54 -8.36)"/><path class="cls-26" d="M345.12,127.59c.2,0,.5,0,.57-.12.52-.76,1.62-.87,1.94-1.87.14-.44,1-.3,1.07-.95.11.09.32.18.31.25a1.51,1.51,0,0,0,1,1.71c0,.16.07.39,0,.47a17.25,17.25,0,0,1-2.4,2.36,4.49,4.49,0,0,0-1.66,1.72.72.72,0,0,1-.82.34v-3.91Z" transform="translate(-15.54 -8.36)"/><path class="cls-26" d="M331.76,136.06a2.44,2.44,0,0,0,.92-.13c1-.65,2.29-.89,3.16-1.82.08-.08.32,0,.48,0a4,4,0,0,0,0,2.94c-1.24.64-2.45,1.36-3.73,1.89-.59.25-1,1-1.81.71l.65-2.93Z" transform="translate(-15.54 -8.36)"/><path class="cls-26" d="M324.59,138.66c.27.69.83.33,1.2.24.72-.18,1.4-.53,2.11-.76a4.74,4.74,0,0,1,.93-.13,4,4,0,0,0,0,2.94,3.58,3.58,0,0,0-1.79.31c-.92.46-2.07.33-2.87,1.19-.21.22-.8.09-1.21.12a11.07,11.07,0,0,1,.76-2.23,6.85,6.85,0,0,0,.22-1c.11-.09.23-.16.32-.25S324.48,138.8,324.59,138.66Z" transform="translate(-15.54 -8.36)"/><path class="cls-23" d="M350,126.61a1.51,1.51,0,0,1-1-1.71c0-.07-.2-.16-.31-.25v-2.28a3,3,0,0,0,.6-.44,1.29,1.29,0,0,1,1.36-.53c.11.16.32.34.31.5a11.83,11.83,0,0,0,.34,3.08c0,.36,0,.73,0,1.09C351.24,126.89,350.85,127.05,350,126.61Z" transform="translate(-15.54 -8.36)"/><path class="cls-23" d="M323.94,139.32a6.85,6.85,0,0,1-.22,1,11.07,11.07,0,0,0-.76,2.23,3.3,3.3,0,0,0-.64.59c-.65,1-1,1-1.65,0-.06-.11-.21-.17-.31-.25a3.87,3.87,0,0,1,.64-1.81,2.65,2.65,0,0,0,.33-1.77h2.61Z" transform="translate(-15.54 -8.36)"/><path class="cls-23" d="M315.79,141.6c-.14.41-.29.83-.43,1.25-.08.23-.15.47-.22.7-.74.36-.89,1.15-1.3,1.75s-.82.73-1.3-.11c-.12-.21-.22-.44-.33-.66a3.18,3.18,0,0,1,.28-1.18,8.74,8.74,0,0,1,1.35-2.08C314.51,141.27,315.09,141.83,315.79,141.6Z" transform="translate(-15.54 -8.36)"/><path class="cls-23" d="M328.83,141a4,4,0,0,1,0-2.94l.32-1,2.28-.33-.65,2.93c-.69.09,0,.93-.6,1.09-.05.75-.49.65-1,.44C329.08,141.11,329,141,328.83,141Z" transform="translate(-15.54 -8.36)"/><path class="cls-23" d="M336.32,137a4,4,0,0,1,0-2.94v-.65l2.28-.32c0,1-.55,1.91-.32,2.93-.1,0-.22.05-.27.11-.27.35.31,1-.39,1.18A1.49,1.49,0,0,1,336.32,137Z" transform="translate(-15.54 -8.36)"/><path class="cls-23" d="M345.12,128.56v2.94c-.06,0-.15,0-.16,0-.12.32-.14.8-.37.93s-.72,0-1.1,0c0-.16.06-.41,0-.46-.85-.54-.62-1.37-.64-2.14v-.65l.7-.22C344.06,128.83,344.52,128.44,345.12,128.56Z" transform="translate(-15.54 -8.36)"/><path class="cls-23" d="M355.22,120.09c-.69-.44-.79-1.18-1-1.88,0-.15-.21-.27-.31-.4v-.32a2.24,2.24,0,0,0,1.63-.33h.65c.18.68.36,1.36.56,2a.82.82,0,0,1-.16,1,.75.75,0,0,1-1.11,0A1.11,1.11,0,0,0,355.22,120.09Z" transform="translate(-15.54 -8.36)"/><path class="cls-18" d="M336.32,31.79c-.11-.13-.3-.26-.31-.39,0-.52,0-1,0-1.56l1-.66c.82-.1,1.63-.2,2.45-.32.5-.08.54.23.48.57a3.94,3.94,0,0,1-.34,1.15,1.1,1.1,0,0,1-.69.53,1.56,1.56,0,0,0-1.25.68Z" transform="translate(-15.54 -8.36)"/><path class="cls-20" d="M336.65,42.22h.65l.65,1c-.23,0-.6-.16-.64.25a18.17,18.17,0,0,1-.39,3.41c-.29.94-.11,1.87-.36,2.77a19.5,19.5,0,0,0-.76,2.43,9.67,9.67,0,0,1-1.06,2.64c-.4.87-.42,1.91-1.25,2.57-.38,1.65-1.75,2.71-2.53,4.13-.21.37-.55.84-1.16.69,0-.2,0-.46.13-.59a27.65,27.65,0,0,0,3.49-5.2c1-1.72,1.29-3.69,2.2-5.42.26-.49.05-1.08.29-1.67a11.49,11.49,0,0,0,.41-2.91c.09-.66.26-1.31.31-2S336.65,42.92,336.65,42.22Z" transform="translate(-15.54 -8.36)"/><path class="cls-20" d="M326.55,65.35c.11.83-.6,1.17-1.06,1.5a25.1,25.1,0,0,1-3.9,2.38,25.91,25.91,0,0,1-3.54,1.66,36.57,36.57,0,0,1-3.72,1.21,11.88,11.88,0,0,1-4.08.42c.05-.23-.16-.61.26-.64a7.08,7.08,0,0,0,2.49-.31c.6-.25,1.47,0,1.93-.4s1.33.06,1.72-.6c1.05,0,1.86-.76,2.85-1a12.47,12.47,0,0,0,2.55-1.29,9.8,9.8,0,0,0,2.54-1.76,8.53,8.53,0,0,1,1.36-1A1.6,1.6,0,0,1,326.55,65.35Z" transform="translate(-15.54 -8.36)"/><path class="cls-20" d="M309.6,72.52c-.08.11-.17.31-.25.31-1.24,0-2.49,0-3.73,0-.08,0-.17-.2-.25-.31.08-.11.17-.31.25-.31,1.24,0,2.49,0,3.73,0C309.43,72.21,309.52,72.41,309.6,72.52Z" transform="translate(-15.54 -8.36)"/><path class="cls-20" d="M329.8,62.42c0,.2,0,.46-.11.58a21.41,21.41,0,0,1-1.58,1.58c-.13.12-.39.09-.59.12,0-.2,0-.46.12-.58.5-.55,1-1.08,1.58-1.58C329.35,62.42,329.61,62.46,329.8,62.42Z" transform="translate(-15.54 -8.36)"/><path class="cls-27" d="M338,43.2l-.65-1,.32-.65h1c0,.41,0,.83,0,1.23,0,.14-.21.27-.31.4Z" transform="translate(-15.54 -8.36)"/><path class="cls-20" d="M353.92,117.49v.32h-2a1.61,1.61,0,0,1,.38-1.45c1.15-1.28,1.68-2.91,2.56-4.33.15-.26.29-.6.53-.71a1.47,1.47,0,0,0,.77-1.33,1.72,1.72,0,0,1,1.3-.32c-.09.45.23,1-.22,1.34a6.06,6.06,0,0,0-1.33,2c-.45.78-.82,1.59-1.31,2.35A2.54,2.54,0,0,0,353.92,117.49Z" transform="translate(-15.54 -8.36)"/><path class="cls-28" d="M350.66,121.4a1.29,1.29,0,0,0-1.36.53,3,3,0,0,1-.6.44c-.09,0-.25-.06-.26-.11-.14-1.15-.26-2.31-.39-3.47a9.5,9.5,0,0,1,1.16-.32,8.36,8.36,0,0,1,1.12,0Z" transform="translate(-15.54 -8.36)"/><path class="cls-28" d="M345.12,128.56c-.6-.12-1.06.27-1.58.44l-.7.22v-2.94c.23-.07.57-.07.68-.23.34-.47.8-.42,1.27-.42.11.13.3.26.31.4,0,.51,0,1,0,1.56Z" transform="translate(-15.54 -8.36)"/><path class="cls-28" d="M338.6,133.13l-2.28.32v-2.61c.62,0,1.28.15,1.71-.53.07-.11.37-.08.57-.12v2.94Z" transform="translate(-15.54 -8.36)"/><path class="cls-26" d="M300.81,141.6V141a2,2,0,0,0,1.62-1.63h.33c.08.11.15.3.24.31.9.13,1.81.21,2.7.35a6.83,6.83,0,0,1,1,.31v.33L305,142.25c-.6-.11-1.2-.26-1.81-.32s-1.18,0-1.77,0Z" transform="translate(-15.54 -8.36)"/><path class="cls-28" d="M331.43,136.71l-2.28.33.33-2.29a1.76,1.76,0,0,0,1.43-.37,2.14,2.14,0,0,1,1.18-.28c0,.67-.56,1.25-.33,2Z" transform="translate(-15.54 -8.36)"/><path class="cls-28" d="M323.94,139.32h-2.28a24.08,24.08,0,0,1,1-2.61h2.28l-.33,1.95c-.11.14-.21.28-.33.41S324.05,139.23,323.94,139.32Z" transform="translate(-15.54 -8.36)"/><path class="cls-22" d="M356.52,106.73c.5,0,1.06.2,1-.73,0-.49.62-.14.94-.24.11.13.21.27.33.4a2.72,2.72,0,0,0,.32.25,1.88,1.88,0,0,0,1,2c-.18.51-.72.42-1.06.66a1.61,1.61,0,0,0-.25.32h-1.3c0-.8-.58-1.35-.87-2A3.63,3.63,0,0,1,356.52,106.73Z" transform="translate(-15.54 -8.36)"/><path class="cls-22" d="M362.39,100.22c-.22.19-.55.34-.63.57a1.83,1.83,0,0,1-1,1.06,7.6,7.6,0,0,1-1.63-2.61c.62,0,1-.21,1-.9,0-.26-.22-.68.31-.73l1,.65a4.66,4.66,0,0,0,.87,1.38C362.39,99.74,362.35,100,362.39,100.22Z" transform="translate(-15.54 -8.36)"/><path class="cls-22" d="M363.69,92.07a5.35,5.35,0,0,0-.65,2.28h-.33c-.4-.45-.52-1.14-1.19-1.39-.09,0-.08-.37-.11-.56,0-.92,0-1.79,1-2.28h.32C363,90.78,363.74,91.23,363.69,92.07Z" transform="translate(-15.54 -8.36)"/><path class="cls-22" d="M363.37,85.88H363c-.54-.65-1.09-1.3-1.63-2,0-.36,0-.72,0-1.08,0-.68.38-.89,1-.87.52.29,1,.59,1,1.3Z" transform="translate(-15.54 -8.36)"/><path class="cls-12" d="M338.6,41.57h-1c-.09,0-.26-.08-.26-.12.06-1.09-.67-1.89-1-2.82.11-.63.6-.21.9-.32s.68.21.73-.33h1.63c-.14.88.54,1.48.76,2.23.07.24.14.47.22.7A2.61,2.61,0,0,1,338.6,41.57Z" transform="translate(-15.54 -8.36)"/><path class="cls-11" d="M357.5,109.34h1.3a2.11,2.11,0,0,1-.2,1c-1,1.58-1.47,3.5-2.71,5a2.42,2.42,0,0,0-.34,1.78,2.24,2.24,0,0,1-1.63.33,2.54,2.54,0,0,1,.72-2.1c.49-.76.86-1.57,1.31-2.35a6.06,6.06,0,0,1,1.33-2c.45-.35.13-.89.22-1.34Z" transform="translate(-15.54 -8.36)"/><path class="cls-22" d="M360.11,73.17c.56.33,1.13.63,1.67,1a3.72,3.72,0,0,1,.61.64v2.61h-.33a3.34,3.34,0,0,0-.6-.64c-.54-.36-1.12-.67-1.68-1V73.17Z" transform="translate(-15.54 -8.36)"/><path class="cls-28" d="M302.43,139.32a2,2,0,0,1-1.62,1.63l-1.31-1.63v-.66h1l1,.33Z" transform="translate(-15.54 -8.36)"/><path class="cls-28" d="M315.79,141.6c-.7.23-1.28-.33-2-.33a5.59,5.59,0,0,1,.11-.59c.06-.24.14-.48.21-.71a4.39,4.39,0,0,1,.33-.4,2.6,2.6,0,0,1,.33-.25,6,6,0,0,0,1.12,0,1.87,1.87,0,0,1,1.16.34A5,5,0,0,1,315.79,141.6Z" transform="translate(-15.54 -8.36)"/><path class="cls-22" d="M357.83,66a3.4,3.4,0,0,1,2.28.66v2.28h-.65a5,5,0,0,0-1.86-.73s-.07-.16-.1-.25c0-.52,0-1,0-1.56C357.53,66.26,357.72,66.14,357.83,66Z" transform="translate(-15.54 -8.36)"/><path class="cls-28" d="M306.67,140.62v-.33a1.91,1.91,0,0,0,.32-.24c.23-.24.44-.49.66-.73a6,6,0,0,0,1.12,0,1.87,1.87,0,0,1,1.16.34c.05.72-.46,1-1,1.31a9.35,9.35,0,0,0-1.15-.32A8.51,8.51,0,0,0,306.67,140.62Z" transform="translate(-15.54 -8.36)"/><path class="cls-10" d="M311.94,103.12a4.73,4.73,0,0,1-.49.35,2,2,0,0,1-.57.19,8.49,8.49,0,0,1-.88,0,4.14,4.14,0,0,1,.09-.87c.25-.76.54-1.5.82-2.25a2.27,2.27,0,0,1,.19-.34c0,.09.09.18.13.27A13.68,13.68,0,0,1,311.94,103.12Z" transform="translate(-15.54 -8.36)"/><path class="cls-10" d="M265,102.9c.23-.67.52-1.53.83-2.37,0-.12.22-.19.33-.28,0,.09.09.18.13.28a6,6,0,0,1,.31,1c.07.41,0,.79.3,1.19s.19.89-.56.78c-.16,0-.34.22-.52.28C265.16,104,264.9,103.77,265,102.9Z" transform="translate(-15.54 -8.36)"/><text class="cls-29" transform="translate(0 34.31)"><tspan xml:space="preserve">Chantier                   ULAMIR </tspan><tspan class="cls-30"><tspan x="0" y="48">dinsertion</tspan><tspan class="cls-31" x="194.38" y="48">	</tspan><tspan class="cls-32" x="216" y="48" xml:space="preserve">				</tspan><tspan x="360" y="48" xml:space="preserve">  CPIE</tspan></tspan><tspan class="cls-33"><tspan x="0" y="96">numrique</tspan><tspan class="cls-34" x="191.64" y="96">	</tspan><tspan class="cls-32" x="216" y="96" xml:space="preserve">				</tspan><tspan x="360" y="96" xml:space="preserve">  Morlaix</tspan></tspan></text></svg>